<svg width="614" height="345" viewBox="0 0 614 345" fill="none" xmlns="http://www.w3.org/2000/svg">
<rect x="171" y="131" width="181" height="70" rx="19" fill="#FEFCCC" stroke="black" stroke-width="2"/>
<rect x="432" y="185" width="181" height="70" rx="19" fill="#FEFCCC" stroke="black" stroke-width="2"/>
<rect x="432" y="95" width="181" height="70" rx="19" fill="#FEFCCC" stroke="black" stroke-width="2"/>
<rect x="432" y="185" width="181" height="70" rx="19" fill="#FEFCCC" stroke="black" stroke-width="2"/>
<rect x="432" y="95" width="181" height="70" rx="19" fill="#FEFCCC" stroke="black" stroke-width="2" stroke-dasharray="9 5"/>
<path d="M180.805 155V147.664H179.469V146.547H180.805V145.68C180.805 144.773 181.047 144.073 181.531 143.578C182.016 143.083 182.701 142.836 183.586 142.836C183.919 142.836 184.25 142.88 184.578 142.969L184.5 144.141C184.255 144.094 183.995 144.07 183.719 144.07C183.25 144.07 182.888 144.208 182.633 144.484C182.378 144.755 182.25 145.146 182.25 145.656V146.547H184.055V147.664H182.25V155H180.805ZM192.852 144.438L188.141 155H186.625L191.32 144.812H185.164V143.625H192.852V144.438ZM201.391 146.594C201.391 147.161 201.24 147.667 200.938 148.109C200.641 148.552 200.237 148.898 199.727 149.148C200.32 149.404 200.789 149.776 201.133 150.266C201.482 150.755 201.656 151.31 201.656 151.93C201.656 152.914 201.323 153.698 200.656 154.281C199.995 154.865 199.122 155.156 198.039 155.156C196.945 155.156 196.068 154.865 195.406 154.281C194.75 153.693 194.422 152.909 194.422 151.93C194.422 151.315 194.589 150.76 194.922 150.266C195.26 149.771 195.727 149.396 196.32 149.141C195.815 148.891 195.417 148.544 195.125 148.102C194.833 147.659 194.688 147.156 194.688 146.594C194.688 145.635 194.995 144.875 195.609 144.312C196.224 143.75 197.034 143.469 198.039 143.469C199.039 143.469 199.846 143.75 200.461 144.312C201.081 144.875 201.391 145.635 201.391 146.594ZM200.211 151.898C200.211 151.263 200.008 150.745 199.602 150.344C199.201 149.943 198.674 149.742 198.023 149.742C197.372 149.742 196.849 149.94 196.453 150.336C196.062 150.732 195.867 151.253 195.867 151.898C195.867 152.544 196.057 153.052 196.438 153.422C196.823 153.792 197.357 153.977 198.039 153.977C198.716 153.977 199.247 153.792 199.633 153.422C200.018 153.047 200.211 152.539 200.211 151.898ZM198.039 144.656C197.471 144.656 197.01 144.833 196.656 145.188C196.307 145.536 196.133 146.013 196.133 146.617C196.133 147.195 196.305 147.664 196.648 148.023C196.997 148.378 197.461 148.555 198.039 148.555C198.617 148.555 199.078 148.378 199.422 148.023C199.771 147.664 199.945 147.195 199.945 146.617C199.945 146.039 199.766 145.568 199.406 145.203C199.047 144.839 198.591 144.656 198.039 144.656ZM210.375 146.594C210.375 147.161 210.224 147.667 209.922 148.109C209.625 148.552 209.221 148.898 208.711 149.148C209.305 149.404 209.773 149.776 210.117 150.266C210.466 150.755 210.641 151.31 210.641 151.93C210.641 152.914 210.307 153.698 209.641 154.281C208.979 154.865 208.107 155.156 207.023 155.156C205.93 155.156 205.052 154.865 204.391 154.281C203.734 153.693 203.406 152.909 203.406 151.93C203.406 151.315 203.573 150.76 203.906 150.266C204.245 149.771 204.711 149.396 205.305 149.141C204.799 148.891 204.401 148.544 204.109 148.102C203.818 147.659 203.672 147.156 203.672 146.594C203.672 145.635 203.979 144.875 204.594 144.312C205.208 143.75 206.018 143.469 207.023 143.469C208.023 143.469 208.831 143.75 209.445 144.312C210.065 144.875 210.375 145.635 210.375 146.594ZM209.195 151.898C209.195 151.263 208.992 150.745 208.586 150.344C208.185 149.943 207.659 149.742 207.008 149.742C206.357 149.742 205.833 149.94 205.438 150.336C205.047 150.732 204.852 151.253 204.852 151.898C204.852 152.544 205.042 153.052 205.422 153.422C205.807 153.792 206.341 153.977 207.023 153.977C207.701 153.977 208.232 153.792 208.617 153.422C209.003 153.047 209.195 152.539 209.195 151.898ZM207.023 144.656C206.456 144.656 205.995 144.833 205.641 145.188C205.292 145.536 205.117 146.013 205.117 146.617C205.117 147.195 205.289 147.664 205.633 148.023C205.982 148.378 206.445 148.555 207.023 148.555C207.602 148.555 208.062 148.378 208.406 148.023C208.755 147.664 208.93 147.195 208.93 146.617C208.93 146.039 208.75 145.568 208.391 145.203C208.031 144.839 207.576 144.656 207.023 144.656ZM218.562 151.18H220.141V152.359H218.562V155H217.109V152.359H211.93V151.508L217.023 143.625H218.562V151.18ZM213.57 151.18H217.109V145.602L216.938 145.914L213.57 151.18ZM186.438 171.656H182.328L181.547 174H179.055L183.289 162.625H185.461L189.719 174H187.227L186.438 171.656ZM182.961 169.758H185.805L184.375 165.5L182.961 169.758ZM190.281 169.711C190.281 168.393 190.576 167.344 191.164 166.562C191.758 165.781 192.568 165.391 193.594 165.391C194.417 165.391 195.096 165.698 195.633 166.312V162H197.898V174H195.859L195.75 173.102C195.188 173.805 194.464 174.156 193.578 174.156C192.583 174.156 191.784 173.766 191.18 172.984C190.581 172.198 190.281 171.107 190.281 169.711ZM192.539 169.875C192.539 170.667 192.677 171.273 192.953 171.695C193.229 172.117 193.63 172.328 194.156 172.328C194.854 172.328 195.346 172.034 195.633 171.445V168.109C195.352 167.521 194.865 167.227 194.172 167.227C193.083 167.227 192.539 168.109 192.539 169.875ZM199.297 169.711C199.297 168.393 199.591 167.344 200.18 166.562C200.773 165.781 201.583 165.391 202.609 165.391C203.432 165.391 204.112 165.698 204.648 166.312V162H206.914V174H204.875L204.766 173.102C204.203 173.805 203.479 174.156 202.594 174.156C201.599 174.156 200.799 173.766 200.195 172.984C199.596 172.198 199.297 171.107 199.297 169.711ZM201.555 169.875C201.555 170.667 201.693 171.273 201.969 171.695C202.245 172.117 202.646 172.328 203.172 172.328C203.87 172.328 204.362 172.034 204.648 171.445V168.109C204.367 167.521 203.88 167.227 203.188 167.227C202.099 167.227 201.555 168.109 201.555 169.875ZM212.297 169.695C212.297 168.857 212.458 168.109 212.781 167.453C213.104 166.797 213.568 166.289 214.172 165.93C214.781 165.57 215.487 165.391 216.289 165.391C217.43 165.391 218.359 165.74 219.078 166.438C219.802 167.135 220.206 168.083 220.289 169.281L220.305 169.859C220.305 171.156 219.943 172.198 219.219 172.984C218.495 173.766 217.523 174.156 216.305 174.156C215.086 174.156 214.112 173.766 213.383 172.984C212.659 172.203 212.297 171.141 212.297 169.797V169.695ZM214.555 169.859C214.555 170.661 214.706 171.276 215.008 171.703C215.31 172.125 215.742 172.336 216.305 172.336C216.852 172.336 217.279 172.128 217.586 171.711C217.893 171.289 218.047 170.617 218.047 169.695C218.047 168.909 217.893 168.299 217.586 167.867C217.279 167.435 216.846 167.219 216.289 167.219C215.737 167.219 215.31 167.435 215.008 167.867C214.706 168.294 214.555 168.958 214.555 169.859ZM224.734 171.242L226.305 165.547H228.664L225.812 174H223.656L220.805 165.547H223.164L224.734 171.242ZM233.445 174.156C232.206 174.156 231.195 173.776 230.414 173.016C229.638 172.255 229.25 171.242 229.25 169.977V169.758C229.25 168.909 229.414 168.151 229.742 167.484C230.07 166.812 230.534 166.297 231.133 165.938C231.737 165.573 232.424 165.391 233.195 165.391C234.352 165.391 235.26 165.755 235.922 166.484C236.589 167.214 236.922 168.247 236.922 169.586V170.508H231.539C231.612 171.06 231.831 171.503 232.195 171.836C232.565 172.169 233.031 172.336 233.594 172.336C234.464 172.336 235.143 172.021 235.633 171.391L236.742 172.633C236.404 173.112 235.945 173.487 235.367 173.758C234.789 174.023 234.148 174.156 233.445 174.156ZM233.188 167.219C232.74 167.219 232.375 167.37 232.094 167.672C231.818 167.974 231.641 168.406 231.562 168.969H234.703V168.789C234.693 168.289 234.557 167.904 234.297 167.633C234.036 167.357 233.667 167.219 233.188 167.219ZM242.961 167.664C242.654 167.622 242.383 167.602 242.148 167.602C241.294 167.602 240.734 167.891 240.469 168.469V174H238.211V165.547H240.344L240.406 166.555C240.859 165.779 241.487 165.391 242.289 165.391C242.539 165.391 242.773 165.424 242.992 165.492L242.961 167.664ZM247.359 171.242L248.93 165.547H251.289L248.438 174H246.281L243.43 165.547H245.789L247.359 171.242ZM254.672 174H252.406V165.547H254.672V174ZM252.273 163.359C252.273 163.021 252.385 162.742 252.609 162.523C252.839 162.305 253.148 162.195 253.539 162.195C253.924 162.195 254.232 162.305 254.461 162.523C254.69 162.742 254.805 163.021 254.805 163.359C254.805 163.703 254.688 163.984 254.453 164.203C254.224 164.422 253.919 164.531 253.539 164.531C253.159 164.531 252.852 164.422 252.617 164.203C252.388 163.984 252.273 163.703 252.273 163.359ZM260.43 174.156C259.19 174.156 258.18 173.776 257.398 173.016C256.622 172.255 256.234 171.242 256.234 169.977V169.758C256.234 168.909 256.398 168.151 256.727 167.484C257.055 166.812 257.518 166.297 258.117 165.938C258.721 165.573 259.409 165.391 260.18 165.391C261.336 165.391 262.245 165.755 262.906 166.484C263.573 167.214 263.906 168.247 263.906 169.586V170.508H258.523C258.596 171.06 258.815 171.503 259.18 171.836C259.549 172.169 260.016 172.336 260.578 172.336C261.448 172.336 262.128 172.021 262.617 171.391L263.727 172.633C263.388 173.112 262.93 173.487 262.352 173.758C261.773 174.023 261.133 174.156 260.43 174.156ZM260.172 167.219C259.724 167.219 259.359 167.37 259.078 167.672C258.802 167.974 258.625 168.406 258.547 168.969H261.688V168.789C261.677 168.289 261.542 167.904 261.281 167.633C261.021 167.357 260.651 167.219 260.172 167.219ZM272.547 170.93L273.656 165.547H275.836L273.68 174H271.789L270.188 168.68L268.586 174H266.703L264.547 165.547H266.727L267.828 170.922L269.375 165.547H271.008L272.547 170.93ZM288.555 169.852C288.555 171.154 288.258 172.198 287.664 172.984C287.076 173.766 286.279 174.156 285.273 174.156C284.419 174.156 283.729 173.859 283.203 173.266V177.25H280.945V165.547H283.039L283.117 166.375C283.664 165.719 284.378 165.391 285.258 165.391C286.299 165.391 287.109 165.776 287.688 166.547C288.266 167.318 288.555 168.38 288.555 169.734V169.852ZM286.297 169.688C286.297 168.901 286.156 168.294 285.875 167.867C285.599 167.44 285.195 167.227 284.664 167.227C283.956 167.227 283.469 167.497 283.203 168.039V171.5C283.479 172.057 283.971 172.336 284.68 172.336C285.758 172.336 286.297 171.453 286.297 169.688ZM294.859 174C294.755 173.797 294.68 173.544 294.633 173.242C294.086 173.852 293.375 174.156 292.5 174.156C291.672 174.156 290.984 173.917 290.438 173.438C289.896 172.958 289.625 172.354 289.625 171.625C289.625 170.729 289.956 170.042 290.617 169.562C291.284 169.083 292.245 168.841 293.5 168.836H294.539V168.352C294.539 167.961 294.438 167.648 294.234 167.414C294.036 167.18 293.721 167.062 293.289 167.062C292.909 167.062 292.609 167.154 292.391 167.336C292.177 167.518 292.07 167.768 292.07 168.086H289.812C289.812 167.596 289.964 167.143 290.266 166.727C290.568 166.31 290.995 165.984 291.547 165.75C292.099 165.51 292.719 165.391 293.406 165.391C294.448 165.391 295.273 165.654 295.883 166.18C296.497 166.701 296.805 167.435 296.805 168.383V172.047C296.81 172.849 296.922 173.456 297.141 173.867V174H294.859ZM292.992 172.43C293.326 172.43 293.633 172.357 293.914 172.211C294.195 172.06 294.404 171.859 294.539 171.609V170.156H293.695C292.565 170.156 291.964 170.547 291.891 171.328L291.883 171.461C291.883 171.742 291.982 171.974 292.18 172.156C292.378 172.339 292.648 172.43 292.992 172.43ZM298.211 169.711C298.211 168.414 298.518 167.37 299.133 166.578C299.753 165.786 300.586 165.391 301.633 165.391C302.56 165.391 303.281 165.708 303.797 166.344L303.891 165.547H305.938V173.719C305.938 174.458 305.768 175.102 305.43 175.648C305.096 176.195 304.625 176.612 304.016 176.898C303.406 177.185 302.693 177.328 301.875 177.328C301.255 177.328 300.651 177.203 300.062 176.953C299.474 176.708 299.029 176.391 298.727 176L299.727 174.625C300.289 175.255 300.971 175.57 301.773 175.57C302.372 175.57 302.839 175.409 303.172 175.086C303.505 174.768 303.672 174.315 303.672 173.727V173.273C303.151 173.862 302.466 174.156 301.617 174.156C300.602 174.156 299.779 173.76 299.148 172.969C298.523 172.172 298.211 171.117 298.211 169.805V169.711ZM300.469 169.875C300.469 170.641 300.622 171.242 300.93 171.68C301.237 172.112 301.659 172.328 302.195 172.328C302.883 172.328 303.375 172.07 303.672 171.555V168C303.37 167.484 302.883 167.227 302.211 167.227C301.669 167.227 301.242 167.448 300.93 167.891C300.622 168.333 300.469 168.995 300.469 169.875ZM311.57 174.156C310.331 174.156 309.32 173.776 308.539 173.016C307.763 172.255 307.375 171.242 307.375 169.977V169.758C307.375 168.909 307.539 168.151 307.867 167.484C308.195 166.812 308.659 166.297 309.258 165.938C309.862 165.573 310.549 165.391 311.32 165.391C312.477 165.391 313.385 165.755 314.047 166.484C314.714 167.214 315.047 168.247 315.047 169.586V170.508H309.664C309.737 171.06 309.956 171.503 310.32 171.836C310.69 172.169 311.156 172.336 311.719 172.336C312.589 172.336 313.268 172.021 313.758 171.391L314.867 172.633C314.529 173.112 314.07 173.487 313.492 173.758C312.914 174.023 312.273 174.156 311.57 174.156ZM311.312 167.219C310.865 167.219 310.5 167.37 310.219 167.672C309.943 167.974 309.766 168.406 309.688 168.969H312.828V168.789C312.818 168.289 312.682 167.904 312.422 167.633C312.161 167.357 311.792 167.219 311.312 167.219Z" fill="black"/>
<path d="M444.047 202.609H445.133C445.815 202.599 446.352 202.419 446.742 202.07C447.133 201.721 447.328 201.25 447.328 200.656C447.328 199.323 446.664 198.656 445.336 198.656C444.711 198.656 444.211 198.836 443.836 199.195C443.466 199.549 443.281 200.021 443.281 200.609H441.836C441.836 199.708 442.164 198.961 442.82 198.367C443.482 197.768 444.32 197.469 445.336 197.469C446.409 197.469 447.25 197.753 447.859 198.32C448.469 198.888 448.773 199.677 448.773 200.688C448.773 201.182 448.612 201.661 448.289 202.125C447.971 202.589 447.536 202.935 446.984 203.164C447.609 203.362 448.091 203.69 448.43 204.148C448.773 204.607 448.945 205.167 448.945 205.828C448.945 206.849 448.612 207.659 447.945 208.258C447.279 208.857 446.411 209.156 445.344 209.156C444.276 209.156 443.406 208.867 442.734 208.289C442.068 207.711 441.734 206.948 441.734 206H443.188C443.188 206.599 443.383 207.078 443.773 207.438C444.164 207.797 444.688 207.977 445.344 207.977C446.042 207.977 446.576 207.794 446.945 207.43C447.315 207.065 447.5 206.542 447.5 205.859C447.5 205.198 447.297 204.69 446.891 204.336C446.484 203.982 445.898 203.799 445.133 203.789H444.047V202.609ZM451.789 209V201.664H450.453V200.547H451.789V199.68C451.789 198.773 452.031 198.073 452.516 197.578C453 197.083 453.685 196.836 454.57 196.836C454.904 196.836 455.234 196.88 455.562 196.969L455.484 198.141C455.24 198.094 454.979 198.07 454.703 198.07C454.234 198.07 453.872 198.208 453.617 198.484C453.362 198.755 453.234 199.146 453.234 199.656V200.547H455.039V201.664H453.234V209H451.789ZM462.031 204C461.729 204.359 461.367 204.648 460.945 204.867C460.529 205.086 460.07 205.195 459.57 205.195C458.914 205.195 458.341 205.034 457.852 204.711C457.367 204.388 456.992 203.935 456.727 203.352C456.461 202.763 456.328 202.115 456.328 201.406C456.328 200.646 456.471 199.961 456.758 199.352C457.049 198.742 457.461 198.276 457.992 197.953C458.523 197.63 459.143 197.469 459.852 197.469C460.977 197.469 461.862 197.891 462.508 198.734C463.159 199.573 463.484 200.719 463.484 202.172V202.594C463.484 204.807 463.047 206.424 462.172 207.445C461.297 208.461 459.977 208.982 458.211 209.008H457.93V207.789H458.234C459.427 207.768 460.344 207.458 460.984 206.859C461.625 206.255 461.974 205.302 462.031 204ZM459.805 204C460.289 204 460.734 203.852 461.141 203.555C461.552 203.258 461.852 202.891 462.039 202.453V201.875C462.039 200.927 461.833 200.156 461.422 199.562C461.01 198.969 460.49 198.672 459.859 198.672C459.224 198.672 458.714 198.917 458.328 199.406C457.943 199.891 457.75 200.531 457.75 201.328C457.75 202.104 457.935 202.745 458.305 203.25C458.68 203.75 459.18 204 459.805 204ZM472.781 204.867C472.781 206.159 472.484 207.198 471.891 207.984C471.297 208.766 470.5 209.156 469.5 209.156C468.432 209.156 467.607 208.779 467.023 208.023L466.953 209H465.625V197H467.07V201.477C467.654 200.753 468.458 200.391 469.484 200.391C470.51 200.391 471.315 200.779 471.898 201.555C472.487 202.331 472.781 203.393 472.781 204.742V204.867ZM471.336 204.703C471.336 203.719 471.146 202.958 470.766 202.422C470.385 201.885 469.839 201.617 469.125 201.617C468.172 201.617 467.487 202.06 467.07 202.945V206.602C467.513 207.487 468.203 207.93 469.141 207.93C469.833 207.93 470.372 207.661 470.758 207.125C471.143 206.589 471.336 205.781 471.336 204.703ZM480 204C479.698 204.359 479.336 204.648 478.914 204.867C478.497 205.086 478.039 205.195 477.539 205.195C476.883 205.195 476.31 205.034 475.82 204.711C475.336 204.388 474.961 203.935 474.695 203.352C474.43 202.763 474.297 202.115 474.297 201.406C474.297 200.646 474.44 199.961 474.727 199.352C475.018 198.742 475.43 198.276 475.961 197.953C476.492 197.63 477.112 197.469 477.82 197.469C478.945 197.469 479.831 197.891 480.477 198.734C481.128 199.573 481.453 200.719 481.453 202.172V202.594C481.453 204.807 481.016 206.424 480.141 207.445C479.266 208.461 477.945 208.982 476.18 209.008H475.898V207.789H476.203C477.396 207.768 478.312 207.458 478.953 206.859C479.594 206.255 479.943 205.302 480 204ZM477.773 204C478.258 204 478.703 203.852 479.109 203.555C479.521 203.258 479.82 202.891 480.008 202.453V201.875C480.008 200.927 479.802 200.156 479.391 199.562C478.979 198.969 478.458 198.672 477.828 198.672C477.193 198.672 476.682 198.917 476.297 199.406C475.911 199.891 475.719 200.531 475.719 201.328C475.719 202.104 475.904 202.745 476.273 203.25C476.648 203.75 477.148 204 477.773 204ZM448.859 223.352H444.359V228H442.016V216.625H449.422V218.523H444.359V221.461H448.859V223.352ZM453.016 228H450.75V219.547H453.016V228ZM450.617 217.359C450.617 217.021 450.729 216.742 450.953 216.523C451.182 216.305 451.492 216.195 451.883 216.195C452.268 216.195 452.576 216.305 452.805 216.523C453.034 216.742 453.148 217.021 453.148 217.359C453.148 217.703 453.031 217.984 452.797 218.203C452.568 218.422 452.263 218.531 451.883 218.531C451.503 218.531 451.195 218.422 450.961 218.203C450.732 217.984 450.617 217.703 450.617 217.359ZM458.102 222.07L459.523 219.547H461.938L459.531 223.688L462.039 228H459.617L458.109 225.344L456.609 228H454.18L456.688 223.688L454.289 219.547H456.711L458.102 222.07ZM470.898 228.156C469.659 228.156 468.648 227.776 467.867 227.016C467.091 226.255 466.703 225.242 466.703 223.977V223.758C466.703 222.909 466.867 222.151 467.195 221.484C467.523 220.812 467.987 220.297 468.586 219.938C469.19 219.573 469.878 219.391 470.648 219.391C471.805 219.391 472.714 219.755 473.375 220.484C474.042 221.214 474.375 222.247 474.375 223.586V224.508H468.992C469.065 225.06 469.284 225.503 469.648 225.836C470.018 226.169 470.484 226.336 471.047 226.336C471.917 226.336 472.596 226.021 473.086 225.391L474.195 226.633C473.857 227.112 473.398 227.487 472.82 227.758C472.242 228.023 471.602 228.156 470.898 228.156ZM470.641 221.219C470.193 221.219 469.828 221.37 469.547 221.672C469.271 221.974 469.094 222.406 469.016 222.969H472.156V222.789C472.146 222.289 472.01 221.904 471.75 221.633C471.49 221.357 471.12 221.219 470.641 221.219ZM478.883 222.07L480.305 219.547H482.719L480.312 223.688L482.82 228H480.398L478.891 225.344L477.391 228H474.961L477.469 223.688L475.07 219.547H477.492L478.883 222.07ZM487.164 226.336C487.581 226.336 487.919 226.221 488.18 225.992C488.44 225.763 488.576 225.458 488.586 225.078H490.703C490.698 225.651 490.542 226.177 490.234 226.656C489.927 227.13 489.505 227.5 488.969 227.766C488.438 228.026 487.849 228.156 487.203 228.156C485.995 228.156 485.042 227.773 484.344 227.008C483.646 226.237 483.297 225.174 483.297 223.82V223.672C483.297 222.37 483.643 221.331 484.336 220.555C485.029 219.779 485.979 219.391 487.188 219.391C488.245 219.391 489.091 219.693 489.727 220.297C490.367 220.896 490.693 221.695 490.703 222.695H488.586C488.576 222.258 488.44 221.904 488.18 221.633C487.919 221.357 487.576 221.219 487.148 221.219C486.622 221.219 486.224 221.411 485.953 221.797C485.688 222.177 485.555 222.797 485.555 223.656V223.891C485.555 224.76 485.688 225.385 485.953 225.766C486.219 226.146 486.622 226.336 487.164 226.336ZM495.883 228.156C494.643 228.156 493.633 227.776 492.852 227.016C492.076 226.255 491.688 225.242 491.688 223.977V223.758C491.688 222.909 491.852 222.151 492.18 221.484C492.508 220.812 492.971 220.297 493.57 219.938C494.174 219.573 494.862 219.391 495.633 219.391C496.789 219.391 497.698 219.755 498.359 220.484C499.026 221.214 499.359 222.247 499.359 223.586V224.508H493.977C494.049 225.06 494.268 225.503 494.633 225.836C495.003 226.169 495.469 226.336 496.031 226.336C496.901 226.336 497.581 226.021 498.07 225.391L499.18 226.633C498.841 227.112 498.383 227.487 497.805 227.758C497.227 228.023 496.586 228.156 495.883 228.156ZM495.625 221.219C495.177 221.219 494.812 221.37 494.531 221.672C494.255 221.974 494.078 222.406 494 222.969H497.141V222.789C497.13 222.289 496.995 221.904 496.734 221.633C496.474 221.357 496.104 221.219 495.625 221.219ZM504.539 228.156C503.299 228.156 502.289 227.776 501.508 227.016C500.732 226.255 500.344 225.242 500.344 223.977V223.758C500.344 222.909 500.508 222.151 500.836 221.484C501.164 220.812 501.628 220.297 502.227 219.938C502.831 219.573 503.518 219.391 504.289 219.391C505.445 219.391 506.354 219.755 507.016 220.484C507.682 221.214 508.016 222.247 508.016 223.586V224.508H502.633C502.706 225.06 502.924 225.503 503.289 225.836C503.659 226.169 504.125 226.336 504.688 226.336C505.557 226.336 506.237 226.021 506.727 225.391L507.836 226.633C507.497 227.112 507.039 227.487 506.461 227.758C505.883 228.023 505.242 228.156 504.539 228.156ZM504.281 221.219C503.833 221.219 503.469 221.37 503.188 221.672C502.911 221.974 502.734 222.406 502.656 222.969H505.797V222.789C505.786 222.289 505.651 221.904 505.391 221.633C505.13 221.357 504.76 221.219 504.281 221.219ZM508.953 223.711C508.953 222.393 509.247 221.344 509.836 220.562C510.43 219.781 511.24 219.391 512.266 219.391C513.089 219.391 513.768 219.698 514.305 220.312V216H516.57V228H514.531L514.422 227.102C513.859 227.805 513.135 228.156 512.25 228.156C511.255 228.156 510.456 227.766 509.852 226.984C509.253 226.198 508.953 225.107 508.953 223.711ZM511.211 223.875C511.211 224.667 511.349 225.273 511.625 225.695C511.901 226.117 512.302 226.328 512.828 226.328C513.526 226.328 514.018 226.034 514.305 225.445V222.109C514.023 221.521 513.536 221.227 512.844 221.227C511.755 221.227 511.211 222.109 511.211 223.875ZM520.703 228H518.438V219.547H520.703V228ZM518.305 217.359C518.305 217.021 518.417 216.742 518.641 216.523C518.87 216.305 519.18 216.195 519.57 216.195C519.956 216.195 520.263 216.305 520.492 216.523C520.721 216.742 520.836 217.021 520.836 217.359C520.836 217.703 520.719 217.984 520.484 218.203C520.255 218.422 519.951 218.531 519.57 218.531C519.19 218.531 518.883 218.422 518.648 218.203C518.419 217.984 518.305 217.703 518.305 217.359ZM524.648 219.547L524.719 220.523C525.323 219.768 526.133 219.391 527.148 219.391C528.044 219.391 528.711 219.654 529.148 220.18C529.586 220.706 529.81 221.492 529.82 222.539V228H527.562V222.594C527.562 222.115 527.458 221.768 527.25 221.555C527.042 221.336 526.695 221.227 526.211 221.227C525.576 221.227 525.099 221.497 524.781 222.039V228H522.523V219.547H524.648ZM531.211 223.711C531.211 222.414 531.518 221.37 532.133 220.578C532.753 219.786 533.586 219.391 534.633 219.391C535.56 219.391 536.281 219.708 536.797 220.344L536.891 219.547H538.938V227.719C538.938 228.458 538.768 229.102 538.43 229.648C538.096 230.195 537.625 230.612 537.016 230.898C536.406 231.185 535.693 231.328 534.875 231.328C534.255 231.328 533.651 231.203 533.062 230.953C532.474 230.708 532.029 230.391 531.727 230L532.727 228.625C533.289 229.255 533.971 229.57 534.773 229.57C535.372 229.57 535.839 229.409 536.172 229.086C536.505 228.768 536.672 228.315 536.672 227.727V227.273C536.151 227.862 535.466 228.156 534.617 228.156C533.602 228.156 532.779 227.76 532.148 226.969C531.523 226.172 531.211 225.117 531.211 223.805V223.711ZM533.469 223.875C533.469 224.641 533.622 225.242 533.93 225.68C534.237 226.112 534.659 226.328 535.195 226.328C535.883 226.328 536.375 226.07 536.672 225.555V222C536.37 221.484 535.883 221.227 535.211 221.227C534.669 221.227 534.242 221.448 533.93 221.891C533.622 222.333 533.469 222.995 533.469 223.875ZM543.062 228H540.797V216H543.062V228ZM548.086 224.805L549.648 219.547H552.07L548.672 229.312L548.484 229.758C547.979 230.862 547.146 231.414 545.984 231.414C545.656 231.414 545.323 231.365 544.984 231.266V229.555L545.328 229.562C545.755 229.562 546.073 229.497 546.281 229.367C546.495 229.237 546.661 229.021 546.781 228.719L547.047 228.023L544.086 219.547H546.516L548.086 224.805ZM559.328 228H557.062V216H559.328V228ZM560.844 223.695C560.844 222.857 561.005 222.109 561.328 221.453C561.651 220.797 562.115 220.289 562.719 219.93C563.328 219.57 564.034 219.391 564.836 219.391C565.977 219.391 566.906 219.74 567.625 220.438C568.349 221.135 568.753 222.083 568.836 223.281L568.852 223.859C568.852 225.156 568.49 226.198 567.766 226.984C567.042 227.766 566.07 228.156 564.852 228.156C563.633 228.156 562.659 227.766 561.93 226.984C561.206 226.203 560.844 225.141 560.844 223.797V223.695ZM563.102 223.859C563.102 224.661 563.253 225.276 563.555 225.703C563.857 226.125 564.289 226.336 564.852 226.336C565.398 226.336 565.826 226.128 566.133 225.711C566.44 225.289 566.594 224.617 566.594 223.695C566.594 222.909 566.44 222.299 566.133 221.867C565.826 221.435 565.393 221.219 564.836 221.219C564.284 221.219 563.857 221.435 563.555 221.867C563.253 222.294 563.102 222.958 563.102 223.859ZM572.32 219.547L572.391 220.523C572.995 219.768 573.805 219.391 574.82 219.391C575.716 219.391 576.383 219.654 576.82 220.18C577.258 220.706 577.482 221.492 577.492 222.539V228H575.234V222.594C575.234 222.115 575.13 221.768 574.922 221.555C574.714 221.336 574.367 221.227 573.883 221.227C573.247 221.227 572.771 221.497 572.453 222.039V228H570.195V219.547H572.32ZM578.883 223.711C578.883 222.414 579.19 221.37 579.805 220.578C580.424 219.786 581.258 219.391 582.305 219.391C583.232 219.391 583.953 219.708 584.469 220.344L584.562 219.547H586.609V227.719C586.609 228.458 586.44 229.102 586.102 229.648C585.768 230.195 585.297 230.612 584.688 230.898C584.078 231.185 583.365 231.328 582.547 231.328C581.927 231.328 581.323 231.203 580.734 230.953C580.146 230.708 579.701 230.391 579.398 230L580.398 228.625C580.961 229.255 581.643 229.57 582.445 229.57C583.044 229.57 583.51 229.409 583.844 229.086C584.177 228.768 584.344 228.315 584.344 227.727V227.273C583.823 227.862 583.138 228.156 582.289 228.156C581.273 228.156 580.451 227.76 579.82 226.969C579.195 226.172 578.883 225.117 578.883 223.805V223.711ZM581.141 223.875C581.141 224.641 581.294 225.242 581.602 225.68C581.909 226.112 582.331 226.328 582.867 226.328C583.555 226.328 584.047 226.07 584.344 225.555V222C584.042 221.484 583.555 221.227 582.883 221.227C582.341 221.227 581.914 221.448 581.602 221.891C581.294 222.333 581.141 222.995 581.141 223.875ZM446.445 244.664C446.445 244.388 446.307 244.172 446.031 244.016C445.76 243.854 445.323 243.711 444.719 243.586C442.708 243.164 441.703 242.31 441.703 241.023C441.703 240.273 442.013 239.648 442.633 239.148C443.258 238.643 444.073 238.391 445.078 238.391C446.151 238.391 447.008 238.643 447.648 239.148C448.294 239.654 448.617 240.31 448.617 241.117H446.359C446.359 240.794 446.255 240.529 446.047 240.32C445.839 240.107 445.513 240 445.07 240C444.69 240 444.396 240.086 444.188 240.258C443.979 240.43 443.875 240.648 443.875 240.914C443.875 241.164 443.992 241.367 444.227 241.523C444.466 241.674 444.867 241.807 445.43 241.922C445.992 242.031 446.466 242.156 446.852 242.297C448.044 242.734 448.641 243.492 448.641 244.57C448.641 245.341 448.31 245.966 447.648 246.445C446.987 246.919 446.133 247.156 445.086 247.156C444.378 247.156 443.747 247.031 443.195 246.781C442.648 246.526 442.219 246.18 441.906 245.742C441.594 245.299 441.438 244.823 441.438 244.312H443.578C443.599 244.714 443.747 245.021 444.023 245.234C444.299 245.448 444.669 245.555 445.133 245.555C445.565 245.555 445.891 245.474 446.109 245.312C446.333 245.146 446.445 244.93 446.445 244.664ZM455.164 246.141C454.607 246.818 453.836 247.156 452.852 247.156C451.945 247.156 451.253 246.896 450.773 246.375C450.299 245.854 450.057 245.091 450.047 244.086V238.547H452.305V244.008C452.305 244.888 452.706 245.328 453.508 245.328C454.273 245.328 454.799 245.062 455.086 244.531V238.547H457.352V247H455.227L455.164 246.141ZM466.672 242.852C466.672 244.206 466.383 245.263 465.805 246.023C465.227 246.779 464.419 247.156 463.383 247.156C462.466 247.156 461.734 246.805 461.188 246.102L461.086 247H459.055V235H461.312V239.305C461.833 238.695 462.518 238.391 463.367 238.391C464.398 238.391 465.206 238.771 465.789 239.531C466.378 240.286 466.672 241.352 466.672 242.727V242.852ZM464.414 242.688C464.414 241.833 464.279 241.211 464.008 240.82C463.737 240.424 463.333 240.227 462.797 240.227C462.078 240.227 461.583 240.521 461.312 241.109V244.445C461.589 245.039 462.089 245.336 462.812 245.336C463.542 245.336 464.021 244.977 464.25 244.258C464.359 243.914 464.414 243.391 464.414 242.688ZM470.188 238.547L470.258 239.492C470.857 238.758 471.667 238.391 472.688 238.391C473.776 238.391 474.523 238.82 474.93 239.68C475.523 238.82 476.37 238.391 477.469 238.391C478.385 238.391 479.068 238.659 479.516 239.195C479.964 239.727 480.188 240.529 480.188 241.602V247H477.922V241.609C477.922 241.13 477.828 240.781 477.641 240.562C477.453 240.339 477.122 240.227 476.648 240.227C475.971 240.227 475.503 240.549 475.242 241.195L475.25 247H472.992V241.617C472.992 241.128 472.896 240.773 472.703 240.555C472.51 240.336 472.182 240.227 471.719 240.227C471.078 240.227 470.615 240.492 470.328 241.023V247H468.07V238.547H470.188ZM484.312 247H482.047V238.547H484.312V247ZM481.914 236.359C481.914 236.021 482.026 235.742 482.25 235.523C482.479 235.305 482.789 235.195 483.18 235.195C483.565 235.195 483.872 235.305 484.102 235.523C484.331 235.742 484.445 236.021 484.445 236.359C484.445 236.703 484.328 236.984 484.094 237.203C483.865 237.422 483.56 237.531 483.18 237.531C482.799 237.531 482.492 237.422 482.258 237.203C482.029 236.984 481.914 236.703 481.914 236.359ZM490.758 244.664C490.758 244.388 490.62 244.172 490.344 244.016C490.073 243.854 489.635 243.711 489.031 243.586C487.021 243.164 486.016 242.31 486.016 241.023C486.016 240.273 486.326 239.648 486.945 239.148C487.57 238.643 488.385 238.391 489.391 238.391C490.464 238.391 491.32 238.643 491.961 239.148C492.607 239.654 492.93 240.31 492.93 241.117H490.672C490.672 240.794 490.568 240.529 490.359 240.32C490.151 240.107 489.826 240 489.383 240C489.003 240 488.708 240.086 488.5 240.258C488.292 240.43 488.188 240.648 488.188 240.914C488.188 241.164 488.305 241.367 488.539 241.523C488.779 241.674 489.18 241.807 489.742 241.922C490.305 242.031 490.779 242.156 491.164 242.297C492.357 242.734 492.953 243.492 492.953 244.57C492.953 245.341 492.622 245.966 491.961 246.445C491.299 246.919 490.445 247.156 489.398 247.156C488.69 247.156 488.06 247.031 487.508 246.781C486.961 246.526 486.531 246.18 486.219 245.742C485.906 245.299 485.75 244.823 485.75 244.312H487.891C487.911 244.714 488.06 245.021 488.336 245.234C488.612 245.448 488.982 245.555 489.445 245.555C489.878 245.555 490.203 245.474 490.422 245.312C490.646 245.146 490.758 244.93 490.758 244.664ZM498.992 244.664C498.992 244.388 498.854 244.172 498.578 244.016C498.307 243.854 497.87 243.711 497.266 243.586C495.255 243.164 494.25 242.31 494.25 241.023C494.25 240.273 494.56 239.648 495.18 239.148C495.805 238.643 496.62 238.391 497.625 238.391C498.698 238.391 499.555 238.643 500.195 239.148C500.841 239.654 501.164 240.31 501.164 241.117H498.906C498.906 240.794 498.802 240.529 498.594 240.32C498.385 240.107 498.06 240 497.617 240C497.237 240 496.943 240.086 496.734 240.258C496.526 240.43 496.422 240.648 496.422 240.914C496.422 241.164 496.539 241.367 496.773 241.523C497.013 241.674 497.414 241.807 497.977 241.922C498.539 242.031 499.013 242.156 499.398 242.297C500.591 242.734 501.188 243.492 501.188 244.57C501.188 245.341 500.857 245.966 500.195 246.445C499.534 246.919 498.68 247.156 497.633 247.156C496.924 247.156 496.294 247.031 495.742 246.781C495.195 246.526 494.766 246.18 494.453 245.742C494.141 245.299 493.984 244.823 493.984 244.312H496.125C496.146 244.714 496.294 245.021 496.57 245.234C496.846 245.448 497.216 245.555 497.68 245.555C498.112 245.555 498.438 245.474 498.656 245.312C498.88 245.146 498.992 244.93 498.992 244.664ZM505.031 247H502.766V238.547H505.031V247ZM502.633 236.359C502.633 236.021 502.745 235.742 502.969 235.523C503.198 235.305 503.508 235.195 503.898 235.195C504.284 235.195 504.591 235.305 504.82 235.523C505.049 235.742 505.164 236.021 505.164 236.359C505.164 236.703 505.047 236.984 504.812 237.203C504.583 237.422 504.279 237.531 503.898 237.531C503.518 237.531 503.211 237.422 502.977 237.203C502.747 236.984 502.633 236.703 502.633 236.359ZM506.547 242.695C506.547 241.857 506.708 241.109 507.031 240.453C507.354 239.797 507.818 239.289 508.422 238.93C509.031 238.57 509.737 238.391 510.539 238.391C511.68 238.391 512.609 238.74 513.328 239.438C514.052 240.135 514.456 241.083 514.539 242.281L514.555 242.859C514.555 244.156 514.193 245.198 513.469 245.984C512.745 246.766 511.773 247.156 510.555 247.156C509.336 247.156 508.362 246.766 507.633 245.984C506.909 245.203 506.547 244.141 506.547 242.797V242.695ZM508.805 242.859C508.805 243.661 508.956 244.276 509.258 244.703C509.56 245.125 509.992 245.336 510.555 245.336C511.102 245.336 511.529 245.128 511.836 244.711C512.143 244.289 512.297 243.617 512.297 242.695C512.297 241.909 512.143 241.299 511.836 240.867C511.529 240.435 511.096 240.219 510.539 240.219C509.987 240.219 509.56 240.435 509.258 240.867C508.956 241.294 508.805 241.958 508.805 242.859ZM518.023 238.547L518.094 239.523C518.698 238.768 519.508 238.391 520.523 238.391C521.419 238.391 522.086 238.654 522.523 239.18C522.961 239.706 523.185 240.492 523.195 241.539V247H520.938V241.594C520.938 241.115 520.833 240.768 520.625 240.555C520.417 240.336 520.07 240.227 519.586 240.227C518.951 240.227 518.474 240.497 518.156 241.039V247H515.898V238.547H518.023ZM529.492 244.664C529.492 244.388 529.354 244.172 529.078 244.016C528.807 243.854 528.37 243.711 527.766 243.586C525.755 243.164 524.75 242.31 524.75 241.023C524.75 240.273 525.06 239.648 525.68 239.148C526.305 238.643 527.12 238.391 528.125 238.391C529.198 238.391 530.055 238.643 530.695 239.148C531.341 239.654 531.664 240.31 531.664 241.117H529.406C529.406 240.794 529.302 240.529 529.094 240.32C528.885 240.107 528.56 240 528.117 240C527.737 240 527.443 240.086 527.234 240.258C527.026 240.43 526.922 240.648 526.922 240.914C526.922 241.164 527.039 241.367 527.273 241.523C527.513 241.674 527.914 241.807 528.477 241.922C529.039 242.031 529.513 242.156 529.898 242.297C531.091 242.734 531.688 243.492 531.688 244.57C531.688 245.341 531.357 245.966 530.695 246.445C530.034 246.919 529.18 247.156 528.133 247.156C527.424 247.156 526.794 247.031 526.242 246.781C525.695 246.526 525.266 246.18 524.953 245.742C524.641 245.299 524.484 244.823 524.484 244.312H526.625C526.646 244.714 526.794 245.021 527.07 245.234C527.346 245.448 527.716 245.555 528.18 245.555C528.612 245.555 528.938 245.474 529.156 245.312C529.38 245.146 529.492 244.93 529.492 244.664ZM539.836 236.469V238.547H541.281V240.203H539.836V244.422C539.836 244.734 539.896 244.958 540.016 245.094C540.135 245.229 540.365 245.297 540.703 245.297C540.953 245.297 541.174 245.279 541.367 245.242V246.953C540.924 247.089 540.469 247.156 540 247.156C538.417 247.156 537.609 246.357 537.578 244.758V240.203H536.344V238.547H537.578V236.469H539.836ZM541.953 242.695C541.953 241.857 542.115 241.109 542.438 240.453C542.76 239.797 543.224 239.289 543.828 238.93C544.438 238.57 545.143 238.391 545.945 238.391C547.086 238.391 548.016 238.74 548.734 239.438C549.458 240.135 549.862 241.083 549.945 242.281L549.961 242.859C549.961 244.156 549.599 245.198 548.875 245.984C548.151 246.766 547.18 247.156 545.961 247.156C544.742 247.156 543.768 246.766 543.039 245.984C542.315 245.203 541.953 244.141 541.953 242.797V242.695ZM544.211 242.859C544.211 243.661 544.362 244.276 544.664 244.703C544.966 245.125 545.398 245.336 545.961 245.336C546.508 245.336 546.935 245.128 547.242 244.711C547.549 244.289 547.703 243.617 547.703 242.695C547.703 241.909 547.549 241.299 547.242 240.867C546.935 240.435 546.503 240.219 545.945 240.219C545.393 240.219 544.966 240.435 544.664 240.867C544.362 241.294 544.211 241.958 544.211 242.859ZM561.906 244.656H557.797L557.016 247H554.523L558.758 235.625H560.93L565.188 247H562.695L561.906 244.656ZM558.43 242.758H561.273L559.844 238.5L558.43 242.758ZM568.594 242.992V247H566.25V235.625H570.688C571.542 235.625 572.292 235.781 572.938 236.094C573.589 236.406 574.089 236.852 574.438 237.43C574.786 238.003 574.961 238.656 574.961 239.391C574.961 240.505 574.578 241.385 573.812 242.031C573.052 242.672 571.997 242.992 570.648 242.992H568.594ZM568.594 241.094H570.688C571.307 241.094 571.779 240.948 572.102 240.656C572.43 240.365 572.594 239.948 572.594 239.406C572.594 238.849 572.43 238.398 572.102 238.055C571.773 237.711 571.32 237.534 570.742 237.523H568.594V241.094ZM579.07 247H576.727V235.625H579.07V247Z" fill="black"/>
<path d="M445.484 117.977C446 117.977 446.451 117.82 446.836 117.508C447.221 117.195 447.435 116.805 447.477 116.336H448.844C448.818 116.82 448.651 117.281 448.344 117.719C448.036 118.156 447.625 118.505 447.109 118.766C446.599 119.026 446.057 119.156 445.484 119.156C444.333 119.156 443.417 118.773 442.734 118.008C442.057 117.237 441.719 116.185 441.719 114.852V114.609C441.719 113.786 441.87 113.055 442.172 112.414C442.474 111.773 442.906 111.276 443.469 110.922C444.036 110.568 444.706 110.391 445.477 110.391C446.424 110.391 447.211 110.674 447.836 111.242C448.466 111.81 448.802 112.547 448.844 113.453H447.477C447.435 112.906 447.227 112.458 446.852 112.109C446.482 111.755 446.023 111.578 445.477 111.578C444.742 111.578 444.172 111.844 443.766 112.375C443.365 112.901 443.164 113.664 443.164 114.664V114.938C443.164 115.911 443.365 116.661 443.766 117.188C444.167 117.714 444.74 117.977 445.484 117.977ZM452.422 112.609H453.508C454.19 112.599 454.727 112.419 455.117 112.07C455.508 111.721 455.703 111.25 455.703 110.656C455.703 109.323 455.039 108.656 453.711 108.656C453.086 108.656 452.586 108.836 452.211 109.195C451.841 109.549 451.656 110.021 451.656 110.609H450.211C450.211 109.708 450.539 108.961 451.195 108.367C451.857 107.768 452.695 107.469 453.711 107.469C454.784 107.469 455.625 107.753 456.234 108.32C456.844 108.888 457.148 109.677 457.148 110.688C457.148 111.182 456.987 111.661 456.664 112.125C456.346 112.589 455.911 112.935 455.359 113.164C455.984 113.362 456.466 113.69 456.805 114.148C457.148 114.607 457.32 115.167 457.32 115.828C457.32 116.849 456.987 117.659 456.32 118.258C455.654 118.857 454.786 119.156 453.719 119.156C452.651 119.156 451.781 118.867 451.109 118.289C450.443 117.711 450.109 116.948 450.109 116H451.562C451.562 116.599 451.758 117.078 452.148 117.438C452.539 117.797 453.062 117.977 453.719 117.977C454.417 117.977 454.951 117.794 455.32 117.43C455.69 117.065 455.875 116.542 455.875 115.859C455.875 115.198 455.672 114.69 455.266 114.336C454.859 113.982 454.273 113.799 453.508 113.789H452.422V112.609ZM464.977 107.617V108.844H464.711C463.586 108.865 462.69 109.198 462.023 109.844C461.357 110.49 460.971 111.398 460.867 112.57C461.466 111.883 462.284 111.539 463.32 111.539C464.31 111.539 465.099 111.888 465.688 112.586C466.281 113.284 466.578 114.185 466.578 115.289C466.578 116.461 466.258 117.398 465.617 118.102C464.982 118.805 464.128 119.156 463.055 119.156C461.966 119.156 461.083 118.74 460.406 117.906C459.729 117.068 459.391 115.99 459.391 114.672V114.117C459.391 112.023 459.836 110.424 460.727 109.32C461.622 108.211 462.953 107.643 464.719 107.617H464.977ZM463.078 112.742C462.583 112.742 462.128 112.891 461.711 113.188C461.294 113.484 461.005 113.857 460.844 114.305V114.836C460.844 115.773 461.055 116.529 461.477 117.102C461.898 117.674 462.424 117.961 463.055 117.961C463.706 117.961 464.216 117.721 464.586 117.242C464.961 116.763 465.148 116.135 465.148 115.359C465.148 114.578 464.958 113.948 464.578 113.469C464.203 112.984 463.703 112.742 463.078 112.742ZM475.633 108.438L470.922 119H469.406L474.102 108.812H467.945V107.625H475.633V108.438ZM479.375 112.609H480.461C481.143 112.599 481.68 112.419 482.07 112.07C482.461 111.721 482.656 111.25 482.656 110.656C482.656 109.323 481.992 108.656 480.664 108.656C480.039 108.656 479.539 108.836 479.164 109.195C478.794 109.549 478.609 110.021 478.609 110.609H477.164C477.164 109.708 477.492 108.961 478.148 108.367C478.81 107.768 479.648 107.469 480.664 107.469C481.737 107.469 482.578 107.753 483.188 108.32C483.797 108.888 484.102 109.677 484.102 110.688C484.102 111.182 483.94 111.661 483.617 112.125C483.299 112.589 482.865 112.935 482.312 113.164C482.938 113.362 483.419 113.69 483.758 114.148C484.102 114.607 484.273 115.167 484.273 115.828C484.273 116.849 483.94 117.659 483.273 118.258C482.607 118.857 481.74 119.156 480.672 119.156C479.604 119.156 478.734 118.867 478.062 118.289C477.396 117.711 477.062 116.948 477.062 116H478.516C478.516 116.599 478.711 117.078 479.102 117.438C479.492 117.797 480.016 117.977 480.672 117.977C481.37 117.977 481.904 117.794 482.273 117.43C482.643 117.065 482.828 116.542 482.828 115.859C482.828 115.198 482.625 114.69 482.219 114.336C481.812 113.982 481.227 113.799 480.461 113.789H479.375V112.609ZM448.438 135.656H444.328L443.547 138H441.055L445.289 126.625H447.461L451.719 138H449.227L448.438 135.656ZM444.961 133.758H447.805L446.375 129.5L444.961 133.758ZM452.281 133.711C452.281 132.393 452.576 131.344 453.164 130.562C453.758 129.781 454.568 129.391 455.594 129.391C456.417 129.391 457.096 129.698 457.633 130.312V126H459.898V138H457.859L457.75 137.102C457.188 137.805 456.464 138.156 455.578 138.156C454.583 138.156 453.784 137.766 453.18 136.984C452.581 136.198 452.281 135.107 452.281 133.711ZM454.539 133.875C454.539 134.667 454.677 135.273 454.953 135.695C455.229 136.117 455.63 136.328 456.156 136.328C456.854 136.328 457.346 136.034 457.633 135.445V132.109C457.352 131.521 456.865 131.227 456.172 131.227C455.083 131.227 454.539 132.109 454.539 133.875ZM461.297 133.711C461.297 132.393 461.591 131.344 462.18 130.562C462.773 129.781 463.583 129.391 464.609 129.391C465.432 129.391 466.112 129.698 466.648 130.312V126H468.914V138H466.875L466.766 137.102C466.203 137.805 465.479 138.156 464.594 138.156C463.599 138.156 462.799 137.766 462.195 136.984C461.596 136.198 461.297 135.107 461.297 133.711ZM463.555 133.875C463.555 134.667 463.693 135.273 463.969 135.695C464.245 136.117 464.646 136.328 465.172 136.328C465.87 136.328 466.362 136.034 466.648 135.445V132.109C466.367 131.521 465.88 131.227 465.188 131.227C464.099 131.227 463.555 132.109 463.555 133.875ZM482.258 133.852C482.258 135.154 481.961 136.198 481.367 136.984C480.779 137.766 479.982 138.156 478.977 138.156C478.122 138.156 477.432 137.859 476.906 137.266V141.25H474.648V129.547H476.742L476.82 130.375C477.367 129.719 478.081 129.391 478.961 129.391C480.003 129.391 480.812 129.776 481.391 130.547C481.969 131.318 482.258 132.38 482.258 133.734V133.852ZM480 133.688C480 132.901 479.859 132.294 479.578 131.867C479.302 131.44 478.898 131.227 478.367 131.227C477.659 131.227 477.172 131.497 476.906 132.039V135.5C477.182 136.057 477.674 136.336 478.383 136.336C479.461 136.336 480 135.453 480 133.688ZM488.562 138C488.458 137.797 488.383 137.544 488.336 137.242C487.789 137.852 487.078 138.156 486.203 138.156C485.375 138.156 484.688 137.917 484.141 137.438C483.599 136.958 483.328 136.354 483.328 135.625C483.328 134.729 483.659 134.042 484.32 133.562C484.987 133.083 485.948 132.841 487.203 132.836H488.242V132.352C488.242 131.961 488.141 131.648 487.938 131.414C487.74 131.18 487.424 131.062 486.992 131.062C486.612 131.062 486.312 131.154 486.094 131.336C485.88 131.518 485.773 131.768 485.773 132.086H483.516C483.516 131.596 483.667 131.143 483.969 130.727C484.271 130.31 484.698 129.984 485.25 129.75C485.802 129.51 486.422 129.391 487.109 129.391C488.151 129.391 488.977 129.654 489.586 130.18C490.201 130.701 490.508 131.435 490.508 132.383V136.047C490.513 136.849 490.625 137.456 490.844 137.867V138H488.562ZM486.695 136.43C487.029 136.43 487.336 136.357 487.617 136.211C487.898 136.06 488.107 135.859 488.242 135.609V134.156H487.398C486.268 134.156 485.667 134.547 485.594 135.328L485.586 135.461C485.586 135.742 485.685 135.974 485.883 136.156C486.081 136.339 486.352 136.43 486.695 136.43ZM491.891 133.711C491.891 132.393 492.185 131.344 492.773 130.562C493.367 129.781 494.177 129.391 495.203 129.391C496.026 129.391 496.706 129.698 497.242 130.312V126H499.508V138H497.469L497.359 137.102C496.797 137.805 496.073 138.156 495.188 138.156C494.193 138.156 493.393 137.766 492.789 136.984C492.19 136.198 491.891 135.107 491.891 133.711ZM494.148 133.875C494.148 134.667 494.286 135.273 494.562 135.695C494.839 136.117 495.24 136.328 495.766 136.328C496.464 136.328 496.956 136.034 497.242 135.445V132.109C496.961 131.521 496.474 131.227 495.781 131.227C494.693 131.227 494.148 132.109 494.148 133.875ZM500.906 133.711C500.906 132.393 501.201 131.344 501.789 130.562C502.383 129.781 503.193 129.391 504.219 129.391C505.042 129.391 505.721 129.698 506.258 130.312V126H508.523V138H506.484L506.375 137.102C505.812 137.805 505.089 138.156 504.203 138.156C503.208 138.156 502.409 137.766 501.805 136.984C501.206 136.198 500.906 135.107 500.906 133.711ZM503.164 133.875C503.164 134.667 503.302 135.273 503.578 135.695C503.854 136.117 504.255 136.328 504.781 136.328C505.479 136.328 505.971 136.034 506.258 135.445V132.109C505.977 131.521 505.49 131.227 504.797 131.227C503.708 131.227 503.164 132.109 503.164 133.875ZM512.656 138H510.391V129.547H512.656V138ZM510.258 127.359C510.258 127.021 510.37 126.742 510.594 126.523C510.823 126.305 511.133 126.195 511.523 126.195C511.909 126.195 512.216 126.305 512.445 126.523C512.674 126.742 512.789 127.021 512.789 127.359C512.789 127.703 512.672 127.984 512.438 128.203C512.208 128.422 511.904 128.531 511.523 128.531C511.143 128.531 510.836 128.422 510.602 128.203C510.372 127.984 510.258 127.703 510.258 127.359ZM516.602 129.547L516.672 130.523C517.276 129.768 518.086 129.391 519.102 129.391C519.997 129.391 520.664 129.654 521.102 130.18C521.539 130.706 521.763 131.492 521.773 132.539V138H519.516V132.594C519.516 132.115 519.411 131.768 519.203 131.555C518.995 131.336 518.648 131.227 518.164 131.227C517.529 131.227 517.052 131.497 516.734 132.039V138H514.477V129.547H516.602ZM523.164 133.711C523.164 132.414 523.471 131.37 524.086 130.578C524.706 129.786 525.539 129.391 526.586 129.391C527.513 129.391 528.234 129.708 528.75 130.344L528.844 129.547H530.891V137.719C530.891 138.458 530.721 139.102 530.383 139.648C530.049 140.195 529.578 140.612 528.969 140.898C528.359 141.185 527.646 141.328 526.828 141.328C526.208 141.328 525.604 141.203 525.016 140.953C524.427 140.708 523.982 140.391 523.68 140L524.68 138.625C525.242 139.255 525.924 139.57 526.727 139.57C527.326 139.57 527.792 139.409 528.125 139.086C528.458 138.768 528.625 138.315 528.625 137.727V137.273C528.104 137.862 527.419 138.156 526.57 138.156C525.555 138.156 524.732 137.76 524.102 136.969C523.477 136.172 523.164 135.117 523.164 133.805V133.711ZM525.422 133.875C525.422 134.641 525.576 135.242 525.883 135.68C526.19 136.112 526.612 136.328 527.148 136.328C527.836 136.328 528.328 136.07 528.625 135.555V132C528.323 131.484 527.836 131.227 527.164 131.227C526.622 131.227 526.195 131.448 525.883 131.891C525.576 132.333 525.422 132.995 525.422 133.875ZM539.32 127.469V129.547H540.766V131.203H539.32V135.422C539.32 135.734 539.38 135.958 539.5 136.094C539.62 136.229 539.849 136.297 540.188 136.297C540.438 136.297 540.659 136.279 540.852 136.242V137.953C540.409 138.089 539.953 138.156 539.484 138.156C537.901 138.156 537.094 137.357 537.062 135.758V131.203H535.828V129.547H537.062V127.469H539.32ZM541.438 133.695C541.438 132.857 541.599 132.109 541.922 131.453C542.245 130.797 542.708 130.289 543.312 129.93C543.922 129.57 544.628 129.391 545.43 129.391C546.57 129.391 547.5 129.74 548.219 130.438C548.943 131.135 549.346 132.083 549.43 133.281L549.445 133.859C549.445 135.156 549.083 136.198 548.359 136.984C547.635 137.766 546.664 138.156 545.445 138.156C544.227 138.156 543.253 137.766 542.523 136.984C541.799 136.203 541.438 135.141 541.438 133.797V133.695ZM543.695 133.859C543.695 134.661 543.846 135.276 544.148 135.703C544.451 136.125 544.883 136.336 545.445 136.336C545.992 136.336 546.419 136.128 546.727 135.711C547.034 135.289 547.188 134.617 547.188 133.695C547.188 132.909 547.034 132.299 546.727 131.867C546.419 131.435 545.987 131.219 545.43 131.219C544.878 131.219 544.451 131.435 544.148 131.867C543.846 132.294 543.695 132.958 543.695 133.859ZM557.023 130.469C557.622 129.75 558.375 129.391 559.281 129.391C561.115 129.391 562.044 130.456 562.07 132.586V138H559.812V132.648C559.812 132.164 559.708 131.807 559.5 131.578C559.292 131.344 558.945 131.227 558.461 131.227C557.799 131.227 557.32 131.482 557.023 131.992V138H554.766V126H557.023V130.469ZM567.664 138.156C566.424 138.156 565.414 137.776 564.633 137.016C563.857 136.255 563.469 135.242 563.469 133.977V133.758C563.469 132.909 563.633 132.151 563.961 131.484C564.289 130.812 564.753 130.297 565.352 129.938C565.956 129.573 566.643 129.391 567.414 129.391C568.57 129.391 569.479 129.755 570.141 130.484C570.807 131.214 571.141 132.247 571.141 133.586V134.508H565.758C565.831 135.06 566.049 135.503 566.414 135.836C566.784 136.169 567.25 136.336 567.812 136.336C568.682 136.336 569.362 136.021 569.852 135.391L570.961 136.633C570.622 137.112 570.164 137.487 569.586 137.758C569.008 138.023 568.367 138.156 567.664 138.156ZM567.406 131.219C566.958 131.219 566.594 131.37 566.312 131.672C566.036 131.974 565.859 132.406 565.781 132.969H568.922V132.789C568.911 132.289 568.776 131.904 568.516 131.633C568.255 131.357 567.885 131.219 567.406 131.219ZM577.328 138C577.224 137.797 577.148 137.544 577.102 137.242C576.555 137.852 575.844 138.156 574.969 138.156C574.141 138.156 573.453 137.917 572.906 137.438C572.365 136.958 572.094 136.354 572.094 135.625C572.094 134.729 572.424 134.042 573.086 133.562C573.753 133.083 574.714 132.841 575.969 132.836H577.008V132.352C577.008 131.961 576.906 131.648 576.703 131.414C576.505 131.18 576.19 131.062 575.758 131.062C575.378 131.062 575.078 131.154 574.859 131.336C574.646 131.518 574.539 131.768 574.539 132.086H572.281C572.281 131.596 572.432 131.143 572.734 130.727C573.036 130.31 573.464 129.984 574.016 129.75C574.568 129.51 575.188 129.391 575.875 129.391C576.917 129.391 577.742 129.654 578.352 130.18C578.966 130.701 579.273 131.435 579.273 132.383V136.047C579.279 136.849 579.391 137.456 579.609 137.867V138H577.328ZM575.461 136.43C575.794 136.43 576.102 136.357 576.383 136.211C576.664 136.06 576.872 135.859 577.008 135.609V134.156H576.164C575.034 134.156 574.432 134.547 574.359 135.328L574.352 135.461C574.352 135.742 574.451 135.974 574.648 136.156C574.846 136.339 575.117 136.43 575.461 136.43ZM580.656 133.711C580.656 132.393 580.951 131.344 581.539 130.562C582.133 129.781 582.943 129.391 583.969 129.391C584.792 129.391 585.471 129.698 586.008 130.312V126H588.273V138H586.234L586.125 137.102C585.562 137.805 584.839 138.156 583.953 138.156C582.958 138.156 582.159 137.766 581.555 136.984C580.956 136.198 580.656 135.107 580.656 133.711ZM582.914 133.875C582.914 134.667 583.052 135.273 583.328 135.695C583.604 136.117 584.005 136.328 584.531 136.328C585.229 136.328 585.721 136.034 586.008 135.445V132.109C585.727 131.521 585.24 131.227 584.547 131.227C583.458 131.227 582.914 132.109 582.914 133.875ZM593.914 138.156C592.674 138.156 591.664 137.776 590.883 137.016C590.107 136.255 589.719 135.242 589.719 133.977V133.758C589.719 132.909 589.883 132.151 590.211 131.484C590.539 130.812 591.003 130.297 591.602 129.938C592.206 129.573 592.893 129.391 593.664 129.391C594.82 129.391 595.729 129.755 596.391 130.484C597.057 131.214 597.391 132.247 597.391 133.586V134.508H592.008C592.081 135.06 592.299 135.503 592.664 135.836C593.034 136.169 593.5 136.336 594.062 136.336C594.932 136.336 595.612 136.021 596.102 135.391L597.211 136.633C596.872 137.112 596.414 137.487 595.836 137.758C595.258 138.023 594.617 138.156 593.914 138.156ZM593.656 131.219C593.208 131.219 592.844 131.37 592.562 131.672C592.286 131.974 592.109 132.406 592.031 132.969H595.172V132.789C595.161 132.289 595.026 131.904 594.766 131.633C594.505 131.357 594.135 131.219 593.656 131.219ZM603.43 131.664C603.122 131.622 602.852 131.602 602.617 131.602C601.763 131.602 601.203 131.891 600.938 132.469V138H598.68V129.547H600.812L600.875 130.555C601.328 129.779 601.956 129.391 602.758 129.391C603.008 129.391 603.242 129.424 603.461 129.492L603.43 131.664Z" fill="#777777"/>
<path d="M431.154 223.988C431.699 223.903 432.073 223.392 431.988 222.846L430.605 213.953C430.52 213.408 430.009 213.034 429.463 213.119C428.917 213.204 428.544 213.715 428.629 214.261L429.858 222.166L421.953 223.395C421.408 223.48 421.034 223.991 421.119 224.537C421.204 225.083 421.715 225.456 422.261 225.371L431.154 223.988ZM352.41 166.807L430.41 223.807L431.59 222.193L353.59 165.193L352.41 166.807Z" fill="black"/>
<path d="M431.938 130.346C432.129 129.827 431.864 129.253 431.346 129.062L422.901 125.95C422.382 125.759 421.808 126.025 421.617 126.543C421.426 127.061 421.691 127.636 422.209 127.827L429.716 130.593L426.95 138.099C426.759 138.618 427.025 139.193 427.543 139.383C428.061 139.574 428.636 139.309 428.827 138.791L431.938 130.346ZM353.419 166.908L431.419 130.908L430.581 129.092L352.581 165.092L353.419 166.908Z" fill="black"/>
<path d="M171.707 166.707C172.098 166.317 172.098 165.683 171.707 165.293L165.343 158.929C164.953 158.538 164.319 158.538 163.929 158.929C163.538 159.319 163.538 159.953 163.929 160.343L169.586 166L163.929 171.657C163.538 172.047 163.538 172.681 163.929 173.071C164.319 173.462 164.953 173.462 165.343 173.071L171.707 166.707ZM93 167H171V165H93V167Z" fill="black"/>
<rect x="448" y="1" width="150" height="49" fill="#5E9AED" stroke="black" stroke-width="2"/>
<path d="M512.344 31H510.836V25.7422H505.102V31H503.602V19.625H505.102V24.5156H510.836V19.625H512.344V31ZM521.438 25.7422H516.508V29.7734H522.234V31H515.008V19.625H522.156V20.8594H516.508V24.5156H521.438V25.7422ZM530.383 28.0312H525.617L524.547 31H523L527.344 19.625H528.656L533.008 31H531.469L530.383 28.0312ZM526.07 26.7969H529.938L528 21.4766L526.07 26.7969ZM534.539 31V19.625H537.75C538.74 19.625 539.615 19.8438 540.375 20.2812C541.135 20.7188 541.721 21.3411 542.133 22.1484C542.549 22.9557 542.76 23.8828 542.766 24.9297V25.6562C542.766 26.7292 542.557 27.6693 542.141 28.4766C541.729 29.2839 541.138 29.9036 540.367 30.3359C539.602 30.7682 538.708 30.9896 537.688 31H534.539ZM536.039 20.8594V29.7734H537.617C538.773 29.7734 539.672 29.4141 540.312 28.6953C540.958 27.9766 541.281 26.9531 541.281 25.625V24.9609C541.281 23.6693 540.977 22.6667 540.367 21.9531C539.763 21.2344 538.904 20.8698 537.789 20.8594H536.039Z" fill="black"/>
<rect x="448" y="295" width="150" height="49" fill="#74CCD3" stroke="black" stroke-width="2"/>
<path d="M500.391 316.547L500.43 317.484C501.049 316.755 501.885 316.391 502.938 316.391C504.12 316.391 504.924 316.844 505.352 317.75C505.633 317.344 505.997 317.016 506.445 316.766C506.898 316.516 507.432 316.391 508.047 316.391C509.901 316.391 510.844 317.372 510.875 319.336V325H509.43V319.422C509.43 318.818 509.292 318.367 509.016 318.07C508.74 317.768 508.276 317.617 507.625 317.617C507.089 317.617 506.643 317.779 506.289 318.102C505.935 318.419 505.729 318.849 505.672 319.391V325H504.219V319.461C504.219 318.232 503.617 317.617 502.414 317.617C501.466 317.617 500.818 318.021 500.469 318.828V325H499.023V316.547H500.391ZM518.281 325C518.198 324.833 518.13 324.536 518.078 324.109C517.406 324.807 516.604 325.156 515.672 325.156C514.839 325.156 514.154 324.922 513.617 324.453C513.086 323.979 512.82 323.38 512.82 322.656C512.82 321.776 513.154 321.094 513.82 320.609C514.492 320.12 515.435 319.875 516.648 319.875H518.055V319.211C518.055 318.706 517.904 318.305 517.602 318.008C517.299 317.706 516.854 317.555 516.266 317.555C515.75 317.555 515.318 317.685 514.969 317.945C514.62 318.206 514.445 318.521 514.445 318.891H512.992C512.992 318.469 513.141 318.062 513.438 317.672C513.74 317.276 514.146 316.964 514.656 316.734C515.172 316.505 515.737 316.391 516.352 316.391C517.326 316.391 518.089 316.635 518.641 317.125C519.193 317.609 519.479 318.279 519.5 319.133V323.023C519.5 323.799 519.599 324.417 519.797 324.875V325H518.281ZM515.883 323.898C516.336 323.898 516.766 323.781 517.172 323.547C517.578 323.312 517.872 323.008 518.055 322.633V320.898H516.922C515.151 320.898 514.266 321.417 514.266 322.453C514.266 322.906 514.417 323.26 514.719 323.516C515.021 323.771 515.409 323.898 515.883 323.898ZM526.688 322.758C526.688 322.367 526.539 322.065 526.242 321.852C525.951 321.633 525.438 321.445 524.703 321.289C523.974 321.133 523.393 320.945 522.961 320.727C522.534 320.508 522.216 320.247 522.008 319.945C521.805 319.643 521.703 319.284 521.703 318.867C521.703 318.174 521.995 317.589 522.578 317.109C523.167 316.63 523.917 316.391 524.828 316.391C525.786 316.391 526.562 316.638 527.156 317.133C527.755 317.628 528.055 318.26 528.055 319.031H526.602C526.602 318.635 526.432 318.294 526.094 318.008C525.76 317.721 525.339 317.578 524.828 317.578C524.302 317.578 523.891 317.693 523.594 317.922C523.297 318.151 523.148 318.451 523.148 318.82C523.148 319.169 523.286 319.432 523.562 319.609C523.839 319.786 524.336 319.956 525.055 320.117C525.779 320.279 526.365 320.471 526.812 320.695C527.26 320.919 527.591 321.19 527.805 321.508C528.023 321.82 528.133 322.203 528.133 322.656C528.133 323.411 527.831 324.018 527.227 324.477C526.622 324.93 525.839 325.156 524.875 325.156C524.198 325.156 523.599 325.036 523.078 324.797C522.557 324.557 522.148 324.224 521.852 323.797C521.56 323.365 521.414 322.898 521.414 322.398H522.859C522.885 322.883 523.078 323.268 523.438 323.555C523.802 323.836 524.281 323.977 524.875 323.977C525.422 323.977 525.859 323.867 526.188 323.648C526.521 323.424 526.688 323.128 526.688 322.758ZM531.977 314.5V316.547H533.555V317.664H531.977V322.906C531.977 323.245 532.047 323.5 532.188 323.672C532.328 323.839 532.568 323.922 532.906 323.922C533.073 323.922 533.302 323.891 533.594 323.828V325C533.214 325.104 532.844 325.156 532.484 325.156C531.839 325.156 531.352 324.961 531.023 324.57C530.695 324.18 530.531 323.625 530.531 322.906V317.664H528.992V316.547H530.531V314.5H531.977ZM538.758 325.156C537.612 325.156 536.68 324.781 535.961 324.031C535.242 323.276 534.883 322.268 534.883 321.008V320.742C534.883 319.904 535.042 319.156 535.359 318.5C535.682 317.839 536.13 317.323 536.703 316.953C537.281 316.578 537.906 316.391 538.578 316.391C539.677 316.391 540.531 316.753 541.141 317.477C541.75 318.201 542.055 319.237 542.055 320.586V321.188H536.328C536.349 322.021 536.591 322.695 537.055 323.211C537.523 323.721 538.117 323.977 538.836 323.977C539.346 323.977 539.779 323.872 540.133 323.664C540.487 323.456 540.797 323.18 541.062 322.836L541.945 323.523C541.237 324.612 540.174 325.156 538.758 325.156ZM538.578 317.578C537.995 317.578 537.505 317.792 537.109 318.219C536.714 318.641 536.469 319.234 536.375 320H540.609V319.891C540.568 319.156 540.37 318.589 540.016 318.188C539.661 317.781 539.182 317.578 538.578 317.578ZM547.82 317.844C547.602 317.807 547.365 317.789 547.109 317.789C546.161 317.789 545.518 318.193 545.18 319V325H543.734V316.547H545.141L545.164 317.523C545.638 316.768 546.31 316.391 547.18 316.391C547.461 316.391 547.674 316.427 547.82 316.5V317.844Z" fill="black"/>
<line x1="522.935" y1="294.435" x2="522.935" y2="267.435" stroke="black"/>
<rect x="528.728" y="262.718" width="8.5" height="8.5" transform="rotate(135 528.728 262.718)" fill="white" stroke="black"/>
<line x1="522.5" y1="50" x2="522.5" y2="83" stroke="black"/>
<rect x="516.707" y="87.7175" width="8.5" height="8.5" transform="rotate(-45 516.707 87.7175)" fill="white" stroke="black"/>
<path d="M35.7969 183.242C35.7969 182.992 35.8698 182.784 36.0156 182.617C36.1667 182.451 36.3906 182.367 36.6875 182.367C36.9844 182.367 37.2083 182.451 37.3594 182.617C37.5156 182.784 37.5938 182.992 37.5938 183.242C37.5938 183.482 37.5156 183.682 37.3594 183.844C37.2083 184.005 36.9844 184.086 36.6875 184.086C36.3906 184.086 36.1667 184.005 36.0156 183.844C35.8698 183.682 35.7969 183.482 35.7969 183.242ZM40.0156 183.242C40.0156 182.992 40.0885 182.784 40.2344 182.617C40.3854 182.451 40.6094 182.367 40.9062 182.367C41.2031 182.367 41.4271 182.451 41.5781 182.617C41.7344 182.784 41.8125 182.992 41.8125 183.242C41.8125 183.482 41.7344 183.682 41.5781 183.844C41.4271 184.005 41.2031 184.086 40.9062 184.086C40.6094 184.086 40.3854 184.005 40.2344 183.844C40.0885 183.682 40.0156 183.482 40.0156 183.242ZM44.2344 183.242C44.2344 182.992 44.3073 182.784 44.4531 182.617C44.6042 182.451 44.8281 182.367 45.125 182.367C45.4219 182.367 45.6458 182.451 45.7969 182.617C45.9531 182.784 46.0312 182.992 46.0312 183.242C46.0312 183.482 45.9531 183.682 45.7969 183.844C45.6458 184.005 45.4219 184.086 45.125 184.086C44.8281 184.086 44.6042 184.005 44.4531 183.844C44.3073 183.682 44.2344 183.482 44.2344 183.242Z" fill="black"/>
</svg>
