<svg width="614" height="185" viewBox="0 0 614 185" fill="none" xmlns="http://www.w3.org/2000/svg">
<rect x="171" y="114" width="181" height="70" rx="19" fill="#FEFCCC" stroke="black" stroke-width="2"/>
<rect x="432" y="114" width="181" height="70" rx="19" fill="#FEFCCC" stroke="black" stroke-width="2"/>
<path d="M180.805 138V130.664H179.469V129.547H180.805V128.68C180.805 127.773 181.047 127.073 181.531 126.578C182.016 126.083 182.701 125.836 183.586 125.836C183.919 125.836 184.25 125.88 184.578 125.969L184.5 127.141C184.255 127.094 183.995 127.07 183.719 127.07C183.25 127.07 182.888 127.208 182.633 127.484C182.378 127.755 182.25 128.146 182.25 128.656V129.547H184.055V130.664H182.25V138H180.805ZM192.852 127.438L188.141 138H186.625L191.32 127.812H185.164V126.625H192.852V127.438ZM201.391 129.594C201.391 130.161 201.24 130.667 200.938 131.109C200.641 131.552 200.237 131.898 199.727 132.148C200.32 132.404 200.789 132.776 201.133 133.266C201.482 133.755 201.656 134.31 201.656 134.93C201.656 135.914 201.323 136.698 200.656 137.281C199.995 137.865 199.122 138.156 198.039 138.156C196.945 138.156 196.068 137.865 195.406 137.281C194.75 136.693 194.422 135.909 194.422 134.93C194.422 134.315 194.589 133.76 194.922 133.266C195.26 132.771 195.727 132.396 196.32 132.141C195.815 131.891 195.417 131.544 195.125 131.102C194.833 130.659 194.688 130.156 194.688 129.594C194.688 128.635 194.995 127.875 195.609 127.312C196.224 126.75 197.034 126.469 198.039 126.469C199.039 126.469 199.846 126.75 200.461 127.312C201.081 127.875 201.391 128.635 201.391 129.594ZM200.211 134.898C200.211 134.263 200.008 133.745 199.602 133.344C199.201 132.943 198.674 132.742 198.023 132.742C197.372 132.742 196.849 132.94 196.453 133.336C196.062 133.732 195.867 134.253 195.867 134.898C195.867 135.544 196.057 136.052 196.438 136.422C196.823 136.792 197.357 136.977 198.039 136.977C198.716 136.977 199.247 136.792 199.633 136.422C200.018 136.047 200.211 135.539 200.211 134.898ZM198.039 127.656C197.471 127.656 197.01 127.833 196.656 128.188C196.307 128.536 196.133 129.013 196.133 129.617C196.133 130.195 196.305 130.664 196.648 131.023C196.997 131.378 197.461 131.555 198.039 131.555C198.617 131.555 199.078 131.378 199.422 131.023C199.771 130.664 199.945 130.195 199.945 129.617C199.945 129.039 199.766 128.568 199.406 128.203C199.047 127.839 198.591 127.656 198.039 127.656ZM210.375 129.594C210.375 130.161 210.224 130.667 209.922 131.109C209.625 131.552 209.221 131.898 208.711 132.148C209.305 132.404 209.773 132.776 210.117 133.266C210.466 133.755 210.641 134.31 210.641 134.93C210.641 135.914 210.307 136.698 209.641 137.281C208.979 137.865 208.107 138.156 207.023 138.156C205.93 138.156 205.052 137.865 204.391 137.281C203.734 136.693 203.406 135.909 203.406 134.93C203.406 134.315 203.573 133.76 203.906 133.266C204.245 132.771 204.711 132.396 205.305 132.141C204.799 131.891 204.401 131.544 204.109 131.102C203.818 130.659 203.672 130.156 203.672 129.594C203.672 128.635 203.979 127.875 204.594 127.312C205.208 126.75 206.018 126.469 207.023 126.469C208.023 126.469 208.831 126.75 209.445 127.312C210.065 127.875 210.375 128.635 210.375 129.594ZM209.195 134.898C209.195 134.263 208.992 133.745 208.586 133.344C208.185 132.943 207.659 132.742 207.008 132.742C206.357 132.742 205.833 132.94 205.438 133.336C205.047 133.732 204.852 134.253 204.852 134.898C204.852 135.544 205.042 136.052 205.422 136.422C205.807 136.792 206.341 136.977 207.023 136.977C207.701 136.977 208.232 136.792 208.617 136.422C209.003 136.047 209.195 135.539 209.195 134.898ZM207.023 127.656C206.456 127.656 205.995 127.833 205.641 128.188C205.292 128.536 205.117 129.013 205.117 129.617C205.117 130.195 205.289 130.664 205.633 131.023C205.982 131.378 206.445 131.555 207.023 131.555C207.602 131.555 208.062 131.378 208.406 131.023C208.755 130.664 208.93 130.195 208.93 129.617C208.93 129.039 208.75 128.568 208.391 128.203C208.031 127.839 207.576 127.656 207.023 127.656ZM218.562 134.18H220.141V135.359H218.562V138H217.109V135.359H211.93V134.508L217.023 126.625H218.562V134.18ZM213.57 134.18H217.109V128.602L216.938 128.914L213.57 134.18ZM186.438 154.656H182.328L181.547 157H179.055L183.289 145.625H185.461L189.719 157H187.227L186.438 154.656ZM182.961 152.758H185.805L184.375 148.5L182.961 152.758ZM190.281 152.711C190.281 151.393 190.576 150.344 191.164 149.562C191.758 148.781 192.568 148.391 193.594 148.391C194.417 148.391 195.096 148.698 195.633 149.312V145H197.898V157H195.859L195.75 156.102C195.188 156.805 194.464 157.156 193.578 157.156C192.583 157.156 191.784 156.766 191.18 155.984C190.581 155.198 190.281 154.107 190.281 152.711ZM192.539 152.875C192.539 153.667 192.677 154.273 192.953 154.695C193.229 155.117 193.63 155.328 194.156 155.328C194.854 155.328 195.346 155.034 195.633 154.445V151.109C195.352 150.521 194.865 150.227 194.172 150.227C193.083 150.227 192.539 151.109 192.539 152.875ZM199.297 152.711C199.297 151.393 199.591 150.344 200.18 149.562C200.773 148.781 201.583 148.391 202.609 148.391C203.432 148.391 204.112 148.698 204.648 149.312V145H206.914V157H204.875L204.766 156.102C204.203 156.805 203.479 157.156 202.594 157.156C201.599 157.156 200.799 156.766 200.195 155.984C199.596 155.198 199.297 154.107 199.297 152.711ZM201.555 152.875C201.555 153.667 201.693 154.273 201.969 154.695C202.245 155.117 202.646 155.328 203.172 155.328C203.87 155.328 204.362 155.034 204.648 154.445V151.109C204.367 150.521 203.88 150.227 203.188 150.227C202.099 150.227 201.555 151.109 201.555 152.875ZM212.297 152.695C212.297 151.857 212.458 151.109 212.781 150.453C213.104 149.797 213.568 149.289 214.172 148.93C214.781 148.57 215.487 148.391 216.289 148.391C217.43 148.391 218.359 148.74 219.078 149.438C219.802 150.135 220.206 151.083 220.289 152.281L220.305 152.859C220.305 154.156 219.943 155.198 219.219 155.984C218.495 156.766 217.523 157.156 216.305 157.156C215.086 157.156 214.112 156.766 213.383 155.984C212.659 155.203 212.297 154.141 212.297 152.797V152.695ZM214.555 152.859C214.555 153.661 214.706 154.276 215.008 154.703C215.31 155.125 215.742 155.336 216.305 155.336C216.852 155.336 217.279 155.128 217.586 154.711C217.893 154.289 218.047 153.617 218.047 152.695C218.047 151.909 217.893 151.299 217.586 150.867C217.279 150.435 216.846 150.219 216.289 150.219C215.737 150.219 215.31 150.435 215.008 150.867C214.706 151.294 214.555 151.958 214.555 152.859ZM224.734 154.242L226.305 148.547H228.664L225.812 157H223.656L220.805 148.547H223.164L224.734 154.242ZM233.445 157.156C232.206 157.156 231.195 156.776 230.414 156.016C229.638 155.255 229.25 154.242 229.25 152.977V152.758C229.25 151.909 229.414 151.151 229.742 150.484C230.07 149.812 230.534 149.297 231.133 148.938C231.737 148.573 232.424 148.391 233.195 148.391C234.352 148.391 235.26 148.755 235.922 149.484C236.589 150.214 236.922 151.247 236.922 152.586V153.508H231.539C231.612 154.06 231.831 154.503 232.195 154.836C232.565 155.169 233.031 155.336 233.594 155.336C234.464 155.336 235.143 155.021 235.633 154.391L236.742 155.633C236.404 156.112 235.945 156.487 235.367 156.758C234.789 157.023 234.148 157.156 233.445 157.156ZM233.188 150.219C232.74 150.219 232.375 150.37 232.094 150.672C231.818 150.974 231.641 151.406 231.562 151.969H234.703V151.789C234.693 151.289 234.557 150.904 234.297 150.633C234.036 150.357 233.667 150.219 233.188 150.219ZM242.961 150.664C242.654 150.622 242.383 150.602 242.148 150.602C241.294 150.602 240.734 150.891 240.469 151.469V157H238.211V148.547H240.344L240.406 149.555C240.859 148.779 241.487 148.391 242.289 148.391C242.539 148.391 242.773 148.424 242.992 148.492L242.961 150.664ZM247.359 154.242L248.93 148.547H251.289L248.438 157H246.281L243.43 148.547H245.789L247.359 154.242ZM254.672 157H252.406V148.547H254.672V157ZM252.273 146.359C252.273 146.021 252.385 145.742 252.609 145.523C252.839 145.305 253.148 145.195 253.539 145.195C253.924 145.195 254.232 145.305 254.461 145.523C254.69 145.742 254.805 146.021 254.805 146.359C254.805 146.703 254.688 146.984 254.453 147.203C254.224 147.422 253.919 147.531 253.539 147.531C253.159 147.531 252.852 147.422 252.617 147.203C252.388 146.984 252.273 146.703 252.273 146.359ZM260.43 157.156C259.19 157.156 258.18 156.776 257.398 156.016C256.622 155.255 256.234 154.242 256.234 152.977V152.758C256.234 151.909 256.398 151.151 256.727 150.484C257.055 149.812 257.518 149.297 258.117 148.938C258.721 148.573 259.409 148.391 260.18 148.391C261.336 148.391 262.245 148.755 262.906 149.484C263.573 150.214 263.906 151.247 263.906 152.586V153.508H258.523C258.596 154.06 258.815 154.503 259.18 154.836C259.549 155.169 260.016 155.336 260.578 155.336C261.448 155.336 262.128 155.021 262.617 154.391L263.727 155.633C263.388 156.112 262.93 156.487 262.352 156.758C261.773 157.023 261.133 157.156 260.43 157.156ZM260.172 150.219C259.724 150.219 259.359 150.37 259.078 150.672C258.802 150.974 258.625 151.406 258.547 151.969H261.688V151.789C261.677 151.289 261.542 150.904 261.281 150.633C261.021 150.357 260.651 150.219 260.172 150.219ZM272.547 153.93L273.656 148.547H275.836L273.68 157H271.789L270.188 151.68L268.586 157H266.703L264.547 148.547H266.727L267.828 153.922L269.375 148.547H271.008L272.547 153.93ZM288.555 152.852C288.555 154.154 288.258 155.198 287.664 155.984C287.076 156.766 286.279 157.156 285.273 157.156C284.419 157.156 283.729 156.859 283.203 156.266V160.25H280.945V148.547H283.039L283.117 149.375C283.664 148.719 284.378 148.391 285.258 148.391C286.299 148.391 287.109 148.776 287.688 149.547C288.266 150.318 288.555 151.38 288.555 152.734V152.852ZM286.297 152.688C286.297 151.901 286.156 151.294 285.875 150.867C285.599 150.44 285.195 150.227 284.664 150.227C283.956 150.227 283.469 150.497 283.203 151.039V154.5C283.479 155.057 283.971 155.336 284.68 155.336C285.758 155.336 286.297 154.453 286.297 152.688ZM294.859 157C294.755 156.797 294.68 156.544 294.633 156.242C294.086 156.852 293.375 157.156 292.5 157.156C291.672 157.156 290.984 156.917 290.438 156.438C289.896 155.958 289.625 155.354 289.625 154.625C289.625 153.729 289.956 153.042 290.617 152.562C291.284 152.083 292.245 151.841 293.5 151.836H294.539V151.352C294.539 150.961 294.438 150.648 294.234 150.414C294.036 150.18 293.721 150.062 293.289 150.062C292.909 150.062 292.609 150.154 292.391 150.336C292.177 150.518 292.07 150.768 292.07 151.086H289.812C289.812 150.596 289.964 150.143 290.266 149.727C290.568 149.31 290.995 148.984 291.547 148.75C292.099 148.51 292.719 148.391 293.406 148.391C294.448 148.391 295.273 148.654 295.883 149.18C296.497 149.701 296.805 150.435 296.805 151.383V155.047C296.81 155.849 296.922 156.456 297.141 156.867V157H294.859ZM292.992 155.43C293.326 155.43 293.633 155.357 293.914 155.211C294.195 155.06 294.404 154.859 294.539 154.609V153.156H293.695C292.565 153.156 291.964 153.547 291.891 154.328L291.883 154.461C291.883 154.742 291.982 154.974 292.18 155.156C292.378 155.339 292.648 155.43 292.992 155.43ZM298.211 152.711C298.211 151.414 298.518 150.37 299.133 149.578C299.753 148.786 300.586 148.391 301.633 148.391C302.56 148.391 303.281 148.708 303.797 149.344L303.891 148.547H305.938V156.719C305.938 157.458 305.768 158.102 305.43 158.648C305.096 159.195 304.625 159.612 304.016 159.898C303.406 160.185 302.693 160.328 301.875 160.328C301.255 160.328 300.651 160.203 300.062 159.953C299.474 159.708 299.029 159.391 298.727 159L299.727 157.625C300.289 158.255 300.971 158.57 301.773 158.57C302.372 158.57 302.839 158.409 303.172 158.086C303.505 157.768 303.672 157.315 303.672 156.727V156.273C303.151 156.862 302.466 157.156 301.617 157.156C300.602 157.156 299.779 156.76 299.148 155.969C298.523 155.172 298.211 154.117 298.211 152.805V152.711ZM300.469 152.875C300.469 153.641 300.622 154.242 300.93 154.68C301.237 155.112 301.659 155.328 302.195 155.328C302.883 155.328 303.375 155.07 303.672 154.555V151C303.37 150.484 302.883 150.227 302.211 150.227C301.669 150.227 301.242 150.448 300.93 150.891C300.622 151.333 300.469 151.995 300.469 152.875ZM311.57 157.156C310.331 157.156 309.32 156.776 308.539 156.016C307.763 155.255 307.375 154.242 307.375 152.977V152.758C307.375 151.909 307.539 151.151 307.867 150.484C308.195 149.812 308.659 149.297 309.258 148.938C309.862 148.573 310.549 148.391 311.32 148.391C312.477 148.391 313.385 148.755 314.047 149.484C314.714 150.214 315.047 151.247 315.047 152.586V153.508H309.664C309.737 154.06 309.956 154.503 310.32 154.836C310.69 155.169 311.156 155.336 311.719 155.336C312.589 155.336 313.268 155.021 313.758 154.391L314.867 155.633C314.529 156.112 314.07 156.487 313.492 156.758C312.914 157.023 312.273 157.156 311.57 157.156ZM311.312 150.219C310.865 150.219 310.5 150.37 310.219 150.672C309.943 150.974 309.766 151.406 309.688 151.969H312.828V151.789C312.818 151.289 312.682 150.904 312.422 150.633C312.161 150.357 311.792 150.219 311.312 150.219Z" fill="black"/>
<path d="M444.047 131.609H445.133C445.815 131.599 446.352 131.419 446.742 131.07C447.133 130.721 447.328 130.25 447.328 129.656C447.328 128.323 446.664 127.656 445.336 127.656C444.711 127.656 444.211 127.836 443.836 128.195C443.466 128.549 443.281 129.021 443.281 129.609H441.836C441.836 128.708 442.164 127.961 442.82 127.367C443.482 126.768 444.32 126.469 445.336 126.469C446.409 126.469 447.25 126.753 447.859 127.32C448.469 127.888 448.773 128.677 448.773 129.688C448.773 130.182 448.612 130.661 448.289 131.125C447.971 131.589 447.536 131.935 446.984 132.164C447.609 132.362 448.091 132.69 448.43 133.148C448.773 133.607 448.945 134.167 448.945 134.828C448.945 135.849 448.612 136.659 447.945 137.258C447.279 137.857 446.411 138.156 445.344 138.156C444.276 138.156 443.406 137.867 442.734 137.289C442.068 136.711 441.734 135.948 441.734 135H443.188C443.188 135.599 443.383 136.078 443.773 136.438C444.164 136.797 444.688 136.977 445.344 136.977C446.042 136.977 446.576 136.794 446.945 136.43C447.315 136.065 447.5 135.542 447.5 134.859C447.5 134.198 447.297 133.69 446.891 133.336C446.484 132.982 445.898 132.799 445.133 132.789H444.047V131.609ZM451.789 138V130.664H450.453V129.547H451.789V128.68C451.789 127.773 452.031 127.073 452.516 126.578C453 126.083 453.685 125.836 454.57 125.836C454.904 125.836 455.234 125.88 455.562 125.969L455.484 127.141C455.24 127.094 454.979 127.07 454.703 127.07C454.234 127.07 453.872 127.208 453.617 127.484C453.362 127.755 453.234 128.146 453.234 128.656V129.547H455.039V130.664H453.234V138H451.789ZM462.031 133C461.729 133.359 461.367 133.648 460.945 133.867C460.529 134.086 460.07 134.195 459.57 134.195C458.914 134.195 458.341 134.034 457.852 133.711C457.367 133.388 456.992 132.935 456.727 132.352C456.461 131.763 456.328 131.115 456.328 130.406C456.328 129.646 456.471 128.961 456.758 128.352C457.049 127.742 457.461 127.276 457.992 126.953C458.523 126.63 459.143 126.469 459.852 126.469C460.977 126.469 461.862 126.891 462.508 127.734C463.159 128.573 463.484 129.719 463.484 131.172V131.594C463.484 133.807 463.047 135.424 462.172 136.445C461.297 137.461 459.977 137.982 458.211 138.008H457.93V136.789H458.234C459.427 136.768 460.344 136.458 460.984 135.859C461.625 135.255 461.974 134.302 462.031 133ZM459.805 133C460.289 133 460.734 132.852 461.141 132.555C461.552 132.258 461.852 131.891 462.039 131.453V130.875C462.039 129.927 461.833 129.156 461.422 128.562C461.01 127.969 460.49 127.672 459.859 127.672C459.224 127.672 458.714 127.917 458.328 128.406C457.943 128.891 457.75 129.531 457.75 130.328C457.75 131.104 457.935 131.745 458.305 132.25C458.68 132.75 459.18 133 459.805 133ZM472.781 133.867C472.781 135.159 472.484 136.198 471.891 136.984C471.297 137.766 470.5 138.156 469.5 138.156C468.432 138.156 467.607 137.779 467.023 137.023L466.953 138H465.625V126H467.07V130.477C467.654 129.753 468.458 129.391 469.484 129.391C470.51 129.391 471.315 129.779 471.898 130.555C472.487 131.331 472.781 132.393 472.781 133.742V133.867ZM471.336 133.703C471.336 132.719 471.146 131.958 470.766 131.422C470.385 130.885 469.839 130.617 469.125 130.617C468.172 130.617 467.487 131.06 467.07 131.945V135.602C467.513 136.487 468.203 136.93 469.141 136.93C469.833 136.93 470.372 136.661 470.758 136.125C471.143 135.589 471.336 134.781 471.336 133.703ZM480 133C479.698 133.359 479.336 133.648 478.914 133.867C478.497 134.086 478.039 134.195 477.539 134.195C476.883 134.195 476.31 134.034 475.82 133.711C475.336 133.388 474.961 132.935 474.695 132.352C474.43 131.763 474.297 131.115 474.297 130.406C474.297 129.646 474.44 128.961 474.727 128.352C475.018 127.742 475.43 127.276 475.961 126.953C476.492 126.63 477.112 126.469 477.82 126.469C478.945 126.469 479.831 126.891 480.477 127.734C481.128 128.573 481.453 129.719 481.453 131.172V131.594C481.453 133.807 481.016 135.424 480.141 136.445C479.266 137.461 477.945 137.982 476.18 138.008H475.898V136.789H476.203C477.396 136.768 478.312 136.458 478.953 135.859C479.594 135.255 479.943 134.302 480 133ZM477.773 133C478.258 133 478.703 132.852 479.109 132.555C479.521 132.258 479.82 131.891 480.008 131.453V130.875C480.008 129.927 479.802 129.156 479.391 128.562C478.979 127.969 478.458 127.672 477.828 127.672C477.193 127.672 476.682 127.917 476.297 128.406C475.911 128.891 475.719 129.531 475.719 130.328C475.719 131.104 475.904 131.745 476.273 132.25C476.648 132.75 477.148 133 477.773 133ZM448.859 152.352H444.359V157H442.016V145.625H449.422V147.523H444.359V150.461H448.859V152.352ZM453.016 157H450.75V148.547H453.016V157ZM450.617 146.359C450.617 146.021 450.729 145.742 450.953 145.523C451.182 145.305 451.492 145.195 451.883 145.195C452.268 145.195 452.576 145.305 452.805 145.523C453.034 145.742 453.148 146.021 453.148 146.359C453.148 146.703 453.031 146.984 452.797 147.203C452.568 147.422 452.263 147.531 451.883 147.531C451.503 147.531 451.195 147.422 450.961 147.203C450.732 146.984 450.617 146.703 450.617 146.359ZM458.102 151.07L459.523 148.547H461.938L459.531 152.688L462.039 157H459.617L458.109 154.344L456.609 157H454.18L456.688 152.688L454.289 148.547H456.711L458.102 151.07ZM470.898 157.156C469.659 157.156 468.648 156.776 467.867 156.016C467.091 155.255 466.703 154.242 466.703 152.977V152.758C466.703 151.909 466.867 151.151 467.195 150.484C467.523 149.812 467.987 149.297 468.586 148.938C469.19 148.573 469.878 148.391 470.648 148.391C471.805 148.391 472.714 148.755 473.375 149.484C474.042 150.214 474.375 151.247 474.375 152.586V153.508H468.992C469.065 154.06 469.284 154.503 469.648 154.836C470.018 155.169 470.484 155.336 471.047 155.336C471.917 155.336 472.596 155.021 473.086 154.391L474.195 155.633C473.857 156.112 473.398 156.487 472.82 156.758C472.242 157.023 471.602 157.156 470.898 157.156ZM470.641 150.219C470.193 150.219 469.828 150.37 469.547 150.672C469.271 150.974 469.094 151.406 469.016 151.969H472.156V151.789C472.146 151.289 472.01 150.904 471.75 150.633C471.49 150.357 471.12 150.219 470.641 150.219ZM478.883 151.07L480.305 148.547H482.719L480.312 152.688L482.82 157H480.398L478.891 154.344L477.391 157H474.961L477.469 152.688L475.07 148.547H477.492L478.883 151.07ZM487.164 155.336C487.581 155.336 487.919 155.221 488.18 154.992C488.44 154.763 488.576 154.458 488.586 154.078H490.703C490.698 154.651 490.542 155.177 490.234 155.656C489.927 156.13 489.505 156.5 488.969 156.766C488.438 157.026 487.849 157.156 487.203 157.156C485.995 157.156 485.042 156.773 484.344 156.008C483.646 155.237 483.297 154.174 483.297 152.82V152.672C483.297 151.37 483.643 150.331 484.336 149.555C485.029 148.779 485.979 148.391 487.188 148.391C488.245 148.391 489.091 148.693 489.727 149.297C490.367 149.896 490.693 150.695 490.703 151.695H488.586C488.576 151.258 488.44 150.904 488.18 150.633C487.919 150.357 487.576 150.219 487.148 150.219C486.622 150.219 486.224 150.411 485.953 150.797C485.688 151.177 485.555 151.797 485.555 152.656V152.891C485.555 153.76 485.688 154.385 485.953 154.766C486.219 155.146 486.622 155.336 487.164 155.336ZM495.883 157.156C494.643 157.156 493.633 156.776 492.852 156.016C492.076 155.255 491.688 154.242 491.688 152.977V152.758C491.688 151.909 491.852 151.151 492.18 150.484C492.508 149.812 492.971 149.297 493.57 148.938C494.174 148.573 494.862 148.391 495.633 148.391C496.789 148.391 497.698 148.755 498.359 149.484C499.026 150.214 499.359 151.247 499.359 152.586V153.508H493.977C494.049 154.06 494.268 154.503 494.633 154.836C495.003 155.169 495.469 155.336 496.031 155.336C496.901 155.336 497.581 155.021 498.07 154.391L499.18 155.633C498.841 156.112 498.383 156.487 497.805 156.758C497.227 157.023 496.586 157.156 495.883 157.156ZM495.625 150.219C495.177 150.219 494.812 150.37 494.531 150.672C494.255 150.974 494.078 151.406 494 151.969H497.141V151.789C497.13 151.289 496.995 150.904 496.734 150.633C496.474 150.357 496.104 150.219 495.625 150.219ZM504.539 157.156C503.299 157.156 502.289 156.776 501.508 156.016C500.732 155.255 500.344 154.242 500.344 152.977V152.758C500.344 151.909 500.508 151.151 500.836 150.484C501.164 149.812 501.628 149.297 502.227 148.938C502.831 148.573 503.518 148.391 504.289 148.391C505.445 148.391 506.354 148.755 507.016 149.484C507.682 150.214 508.016 151.247 508.016 152.586V153.508H502.633C502.706 154.06 502.924 154.503 503.289 154.836C503.659 155.169 504.125 155.336 504.688 155.336C505.557 155.336 506.237 155.021 506.727 154.391L507.836 155.633C507.497 156.112 507.039 156.487 506.461 156.758C505.883 157.023 505.242 157.156 504.539 157.156ZM504.281 150.219C503.833 150.219 503.469 150.37 503.188 150.672C502.911 150.974 502.734 151.406 502.656 151.969H505.797V151.789C505.786 151.289 505.651 150.904 505.391 150.633C505.13 150.357 504.76 150.219 504.281 150.219ZM508.953 152.711C508.953 151.393 509.247 150.344 509.836 149.562C510.43 148.781 511.24 148.391 512.266 148.391C513.089 148.391 513.768 148.698 514.305 149.312V145H516.57V157H514.531L514.422 156.102C513.859 156.805 513.135 157.156 512.25 157.156C511.255 157.156 510.456 156.766 509.852 155.984C509.253 155.198 508.953 154.107 508.953 152.711ZM511.211 152.875C511.211 153.667 511.349 154.273 511.625 154.695C511.901 155.117 512.302 155.328 512.828 155.328C513.526 155.328 514.018 155.034 514.305 154.445V151.109C514.023 150.521 513.536 150.227 512.844 150.227C511.755 150.227 511.211 151.109 511.211 152.875ZM520.703 157H518.438V148.547H520.703V157ZM518.305 146.359C518.305 146.021 518.417 145.742 518.641 145.523C518.87 145.305 519.18 145.195 519.57 145.195C519.956 145.195 520.263 145.305 520.492 145.523C520.721 145.742 520.836 146.021 520.836 146.359C520.836 146.703 520.719 146.984 520.484 147.203C520.255 147.422 519.951 147.531 519.57 147.531C519.19 147.531 518.883 147.422 518.648 147.203C518.419 146.984 518.305 146.703 518.305 146.359ZM524.648 148.547L524.719 149.523C525.323 148.768 526.133 148.391 527.148 148.391C528.044 148.391 528.711 148.654 529.148 149.18C529.586 149.706 529.81 150.492 529.82 151.539V157H527.562V151.594C527.562 151.115 527.458 150.768 527.25 150.555C527.042 150.336 526.695 150.227 526.211 150.227C525.576 150.227 525.099 150.497 524.781 151.039V157H522.523V148.547H524.648ZM531.211 152.711C531.211 151.414 531.518 150.37 532.133 149.578C532.753 148.786 533.586 148.391 534.633 148.391C535.56 148.391 536.281 148.708 536.797 149.344L536.891 148.547H538.938V156.719C538.938 157.458 538.768 158.102 538.43 158.648C538.096 159.195 537.625 159.612 537.016 159.898C536.406 160.185 535.693 160.328 534.875 160.328C534.255 160.328 533.651 160.203 533.062 159.953C532.474 159.708 532.029 159.391 531.727 159L532.727 157.625C533.289 158.255 533.971 158.57 534.773 158.57C535.372 158.57 535.839 158.409 536.172 158.086C536.505 157.768 536.672 157.315 536.672 156.727V156.273C536.151 156.862 535.466 157.156 534.617 157.156C533.602 157.156 532.779 156.76 532.148 155.969C531.523 155.172 531.211 154.117 531.211 152.805V152.711ZM533.469 152.875C533.469 153.641 533.622 154.242 533.93 154.68C534.237 155.112 534.659 155.328 535.195 155.328C535.883 155.328 536.375 155.07 536.672 154.555V151C536.37 150.484 535.883 150.227 535.211 150.227C534.669 150.227 534.242 150.448 533.93 150.891C533.622 151.333 533.469 151.995 533.469 152.875ZM543.062 157H540.797V145H543.062V157ZM548.086 153.805L549.648 148.547H552.07L548.672 158.312L548.484 158.758C547.979 159.862 547.146 160.414 545.984 160.414C545.656 160.414 545.323 160.365 544.984 160.266V158.555L545.328 158.562C545.755 158.562 546.073 158.497 546.281 158.367C546.495 158.237 546.661 158.021 546.781 157.719L547.047 157.023L544.086 148.547H546.516L548.086 153.805ZM559.328 157H557.062V145H559.328V157ZM560.844 152.695C560.844 151.857 561.005 151.109 561.328 150.453C561.651 149.797 562.115 149.289 562.719 148.93C563.328 148.57 564.034 148.391 564.836 148.391C565.977 148.391 566.906 148.74 567.625 149.438C568.349 150.135 568.753 151.083 568.836 152.281L568.852 152.859C568.852 154.156 568.49 155.198 567.766 155.984C567.042 156.766 566.07 157.156 564.852 157.156C563.633 157.156 562.659 156.766 561.93 155.984C561.206 155.203 560.844 154.141 560.844 152.797V152.695ZM563.102 152.859C563.102 153.661 563.253 154.276 563.555 154.703C563.857 155.125 564.289 155.336 564.852 155.336C565.398 155.336 565.826 155.128 566.133 154.711C566.44 154.289 566.594 153.617 566.594 152.695C566.594 151.909 566.44 151.299 566.133 150.867C565.826 150.435 565.393 150.219 564.836 150.219C564.284 150.219 563.857 150.435 563.555 150.867C563.253 151.294 563.102 151.958 563.102 152.859ZM572.32 148.547L572.391 149.523C572.995 148.768 573.805 148.391 574.82 148.391C575.716 148.391 576.383 148.654 576.82 149.18C577.258 149.706 577.482 150.492 577.492 151.539V157H575.234V151.594C575.234 151.115 575.13 150.768 574.922 150.555C574.714 150.336 574.367 150.227 573.883 150.227C573.247 150.227 572.771 150.497 572.453 151.039V157H570.195V148.547H572.32ZM578.883 152.711C578.883 151.414 579.19 150.37 579.805 149.578C580.424 148.786 581.258 148.391 582.305 148.391C583.232 148.391 583.953 148.708 584.469 149.344L584.562 148.547H586.609V156.719C586.609 157.458 586.44 158.102 586.102 158.648C585.768 159.195 585.297 159.612 584.688 159.898C584.078 160.185 583.365 160.328 582.547 160.328C581.927 160.328 581.323 160.203 580.734 159.953C580.146 159.708 579.701 159.391 579.398 159L580.398 157.625C580.961 158.255 581.643 158.57 582.445 158.57C583.044 158.57 583.51 158.409 583.844 158.086C584.177 157.768 584.344 157.315 584.344 156.727V156.273C583.823 156.862 583.138 157.156 582.289 157.156C581.273 157.156 580.451 156.76 579.82 155.969C579.195 155.172 578.883 154.117 578.883 152.805V152.711ZM581.141 152.875C581.141 153.641 581.294 154.242 581.602 154.68C581.909 155.112 582.331 155.328 582.867 155.328C583.555 155.328 584.047 155.07 584.344 154.555V151C584.042 150.484 583.555 150.227 582.883 150.227C582.341 150.227 581.914 150.448 581.602 150.891C581.294 151.333 581.141 151.995 581.141 152.875ZM446.445 173.664C446.445 173.388 446.307 173.172 446.031 173.016C445.76 172.854 445.323 172.711 444.719 172.586C442.708 172.164 441.703 171.31 441.703 170.023C441.703 169.273 442.013 168.648 442.633 168.148C443.258 167.643 444.073 167.391 445.078 167.391C446.151 167.391 447.008 167.643 447.648 168.148C448.294 168.654 448.617 169.31 448.617 170.117H446.359C446.359 169.794 446.255 169.529 446.047 169.32C445.839 169.107 445.513 169 445.07 169C444.69 169 444.396 169.086 444.188 169.258C443.979 169.43 443.875 169.648 443.875 169.914C443.875 170.164 443.992 170.367 444.227 170.523C444.466 170.674 444.867 170.807 445.43 170.922C445.992 171.031 446.466 171.156 446.852 171.297C448.044 171.734 448.641 172.492 448.641 173.57C448.641 174.341 448.31 174.966 447.648 175.445C446.987 175.919 446.133 176.156 445.086 176.156C444.378 176.156 443.747 176.031 443.195 175.781C442.648 175.526 442.219 175.18 441.906 174.742C441.594 174.299 441.438 173.823 441.438 173.312H443.578C443.599 173.714 443.747 174.021 444.023 174.234C444.299 174.448 444.669 174.555 445.133 174.555C445.565 174.555 445.891 174.474 446.109 174.312C446.333 174.146 446.445 173.93 446.445 173.664ZM455.164 175.141C454.607 175.818 453.836 176.156 452.852 176.156C451.945 176.156 451.253 175.896 450.773 175.375C450.299 174.854 450.057 174.091 450.047 173.086V167.547H452.305V173.008C452.305 173.888 452.706 174.328 453.508 174.328C454.273 174.328 454.799 174.062 455.086 173.531V167.547H457.352V176H455.227L455.164 175.141ZM466.672 171.852C466.672 173.206 466.383 174.263 465.805 175.023C465.227 175.779 464.419 176.156 463.383 176.156C462.466 176.156 461.734 175.805 461.188 175.102L461.086 176H459.055V164H461.312V168.305C461.833 167.695 462.518 167.391 463.367 167.391C464.398 167.391 465.206 167.771 465.789 168.531C466.378 169.286 466.672 170.352 466.672 171.727V171.852ZM464.414 171.688C464.414 170.833 464.279 170.211 464.008 169.82C463.737 169.424 463.333 169.227 462.797 169.227C462.078 169.227 461.583 169.521 461.312 170.109V173.445C461.589 174.039 462.089 174.336 462.812 174.336C463.542 174.336 464.021 173.977 464.25 173.258C464.359 172.914 464.414 172.391 464.414 171.688ZM470.188 167.547L470.258 168.492C470.857 167.758 471.667 167.391 472.688 167.391C473.776 167.391 474.523 167.82 474.93 168.68C475.523 167.82 476.37 167.391 477.469 167.391C478.385 167.391 479.068 167.659 479.516 168.195C479.964 168.727 480.188 169.529 480.188 170.602V176H477.922V170.609C477.922 170.13 477.828 169.781 477.641 169.562C477.453 169.339 477.122 169.227 476.648 169.227C475.971 169.227 475.503 169.549 475.242 170.195L475.25 176H472.992V170.617C472.992 170.128 472.896 169.773 472.703 169.555C472.51 169.336 472.182 169.227 471.719 169.227C471.078 169.227 470.615 169.492 470.328 170.023V176H468.07V167.547H470.188ZM484.312 176H482.047V167.547H484.312V176ZM481.914 165.359C481.914 165.021 482.026 164.742 482.25 164.523C482.479 164.305 482.789 164.195 483.18 164.195C483.565 164.195 483.872 164.305 484.102 164.523C484.331 164.742 484.445 165.021 484.445 165.359C484.445 165.703 484.328 165.984 484.094 166.203C483.865 166.422 483.56 166.531 483.18 166.531C482.799 166.531 482.492 166.422 482.258 166.203C482.029 165.984 481.914 165.703 481.914 165.359ZM490.758 173.664C490.758 173.388 490.62 173.172 490.344 173.016C490.073 172.854 489.635 172.711 489.031 172.586C487.021 172.164 486.016 171.31 486.016 170.023C486.016 169.273 486.326 168.648 486.945 168.148C487.57 167.643 488.385 167.391 489.391 167.391C490.464 167.391 491.32 167.643 491.961 168.148C492.607 168.654 492.93 169.31 492.93 170.117H490.672C490.672 169.794 490.568 169.529 490.359 169.32C490.151 169.107 489.826 169 489.383 169C489.003 169 488.708 169.086 488.5 169.258C488.292 169.43 488.188 169.648 488.188 169.914C488.188 170.164 488.305 170.367 488.539 170.523C488.779 170.674 489.18 170.807 489.742 170.922C490.305 171.031 490.779 171.156 491.164 171.297C492.357 171.734 492.953 172.492 492.953 173.57C492.953 174.341 492.622 174.966 491.961 175.445C491.299 175.919 490.445 176.156 489.398 176.156C488.69 176.156 488.06 176.031 487.508 175.781C486.961 175.526 486.531 175.18 486.219 174.742C485.906 174.299 485.75 173.823 485.75 173.312H487.891C487.911 173.714 488.06 174.021 488.336 174.234C488.612 174.448 488.982 174.555 489.445 174.555C489.878 174.555 490.203 174.474 490.422 174.312C490.646 174.146 490.758 173.93 490.758 173.664ZM498.992 173.664C498.992 173.388 498.854 173.172 498.578 173.016C498.307 172.854 497.87 172.711 497.266 172.586C495.255 172.164 494.25 171.31 494.25 170.023C494.25 169.273 494.56 168.648 495.18 168.148C495.805 167.643 496.62 167.391 497.625 167.391C498.698 167.391 499.555 167.643 500.195 168.148C500.841 168.654 501.164 169.31 501.164 170.117H498.906C498.906 169.794 498.802 169.529 498.594 169.32C498.385 169.107 498.06 169 497.617 169C497.237 169 496.943 169.086 496.734 169.258C496.526 169.43 496.422 169.648 496.422 169.914C496.422 170.164 496.539 170.367 496.773 170.523C497.013 170.674 497.414 170.807 497.977 170.922C498.539 171.031 499.013 171.156 499.398 171.297C500.591 171.734 501.188 172.492 501.188 173.57C501.188 174.341 500.857 174.966 500.195 175.445C499.534 175.919 498.68 176.156 497.633 176.156C496.924 176.156 496.294 176.031 495.742 175.781C495.195 175.526 494.766 175.18 494.453 174.742C494.141 174.299 493.984 173.823 493.984 173.312H496.125C496.146 173.714 496.294 174.021 496.57 174.234C496.846 174.448 497.216 174.555 497.68 174.555C498.112 174.555 498.438 174.474 498.656 174.312C498.88 174.146 498.992 173.93 498.992 173.664ZM505.031 176H502.766V167.547H505.031V176ZM502.633 165.359C502.633 165.021 502.745 164.742 502.969 164.523C503.198 164.305 503.508 164.195 503.898 164.195C504.284 164.195 504.591 164.305 504.82 164.523C505.049 164.742 505.164 165.021 505.164 165.359C505.164 165.703 505.047 165.984 504.812 166.203C504.583 166.422 504.279 166.531 503.898 166.531C503.518 166.531 503.211 166.422 502.977 166.203C502.747 165.984 502.633 165.703 502.633 165.359ZM506.547 171.695C506.547 170.857 506.708 170.109 507.031 169.453C507.354 168.797 507.818 168.289 508.422 167.93C509.031 167.57 509.737 167.391 510.539 167.391C511.68 167.391 512.609 167.74 513.328 168.438C514.052 169.135 514.456 170.083 514.539 171.281L514.555 171.859C514.555 173.156 514.193 174.198 513.469 174.984C512.745 175.766 511.773 176.156 510.555 176.156C509.336 176.156 508.362 175.766 507.633 174.984C506.909 174.203 506.547 173.141 506.547 171.797V171.695ZM508.805 171.859C508.805 172.661 508.956 173.276 509.258 173.703C509.56 174.125 509.992 174.336 510.555 174.336C511.102 174.336 511.529 174.128 511.836 173.711C512.143 173.289 512.297 172.617 512.297 171.695C512.297 170.909 512.143 170.299 511.836 169.867C511.529 169.435 511.096 169.219 510.539 169.219C509.987 169.219 509.56 169.435 509.258 169.867C508.956 170.294 508.805 170.958 508.805 171.859ZM518.023 167.547L518.094 168.523C518.698 167.768 519.508 167.391 520.523 167.391C521.419 167.391 522.086 167.654 522.523 168.18C522.961 168.706 523.185 169.492 523.195 170.539V176H520.938V170.594C520.938 170.115 520.833 169.768 520.625 169.555C520.417 169.336 520.07 169.227 519.586 169.227C518.951 169.227 518.474 169.497 518.156 170.039V176H515.898V167.547H518.023ZM529.492 173.664C529.492 173.388 529.354 173.172 529.078 173.016C528.807 172.854 528.37 172.711 527.766 172.586C525.755 172.164 524.75 171.31 524.75 170.023C524.75 169.273 525.06 168.648 525.68 168.148C526.305 167.643 527.12 167.391 528.125 167.391C529.198 167.391 530.055 167.643 530.695 168.148C531.341 168.654 531.664 169.31 531.664 170.117H529.406C529.406 169.794 529.302 169.529 529.094 169.32C528.885 169.107 528.56 169 528.117 169C527.737 169 527.443 169.086 527.234 169.258C527.026 169.43 526.922 169.648 526.922 169.914C526.922 170.164 527.039 170.367 527.273 170.523C527.513 170.674 527.914 170.807 528.477 170.922C529.039 171.031 529.513 171.156 529.898 171.297C531.091 171.734 531.688 172.492 531.688 173.57C531.688 174.341 531.357 174.966 530.695 175.445C530.034 175.919 529.18 176.156 528.133 176.156C527.424 176.156 526.794 176.031 526.242 175.781C525.695 175.526 525.266 175.18 524.953 174.742C524.641 174.299 524.484 173.823 524.484 173.312H526.625C526.646 173.714 526.794 174.021 527.07 174.234C527.346 174.448 527.716 174.555 528.18 174.555C528.612 174.555 528.938 174.474 529.156 174.312C529.38 174.146 529.492 173.93 529.492 173.664ZM539.836 165.469V167.547H541.281V169.203H539.836V173.422C539.836 173.734 539.896 173.958 540.016 174.094C540.135 174.229 540.365 174.297 540.703 174.297C540.953 174.297 541.174 174.279 541.367 174.242V175.953C540.924 176.089 540.469 176.156 540 176.156C538.417 176.156 537.609 175.357 537.578 173.758V169.203H536.344V167.547H537.578V165.469H539.836ZM541.953 171.695C541.953 170.857 542.115 170.109 542.438 169.453C542.76 168.797 543.224 168.289 543.828 167.93C544.438 167.57 545.143 167.391 545.945 167.391C547.086 167.391 548.016 167.74 548.734 168.438C549.458 169.135 549.862 170.083 549.945 171.281L549.961 171.859C549.961 173.156 549.599 174.198 548.875 174.984C548.151 175.766 547.18 176.156 545.961 176.156C544.742 176.156 543.768 175.766 543.039 174.984C542.315 174.203 541.953 173.141 541.953 171.797V171.695ZM544.211 171.859C544.211 172.661 544.362 173.276 544.664 173.703C544.966 174.125 545.398 174.336 545.961 174.336C546.508 174.336 546.935 174.128 547.242 173.711C547.549 173.289 547.703 172.617 547.703 171.695C547.703 170.909 547.549 170.299 547.242 169.867C546.935 169.435 546.503 169.219 545.945 169.219C545.393 169.219 544.966 169.435 544.664 169.867C544.362 170.294 544.211 170.958 544.211 171.859ZM561.906 173.656H557.797L557.016 176H554.523L558.758 164.625H560.93L565.188 176H562.695L561.906 173.656ZM558.43 171.758H561.273L559.844 167.5L558.43 171.758ZM568.594 171.992V176H566.25V164.625H570.688C571.542 164.625 572.292 164.781 572.938 165.094C573.589 165.406 574.089 165.852 574.438 166.43C574.786 167.003 574.961 167.656 574.961 168.391C574.961 169.505 574.578 170.385 573.812 171.031C573.052 171.672 571.997 171.992 570.648 171.992H568.594ZM568.594 170.094H570.688C571.307 170.094 571.779 169.948 572.102 169.656C572.43 169.365 572.594 168.948 572.594 168.406C572.594 167.849 572.43 167.398 572.102 167.055C571.773 166.711 571.32 166.534 570.742 166.523H568.594V170.094ZM579.07 176H576.727V164.625H579.07V176Z" fill="black"/>
<path d="M431.707 149.707C432.098 149.317 432.098 148.683 431.707 148.293L425.343 141.929C424.953 141.538 424.319 141.538 423.929 141.929C423.538 142.319 423.538 142.953 423.929 143.343L429.586 149L423.929 154.657C423.538 155.047 423.538 155.681 423.929 156.071C424.319 156.462 424.953 156.462 425.343 156.071L431.707 149.707ZM353 150H431V148H353V150Z" fill="black"/>
<path d="M171.707 149.707C172.098 149.317 172.098 148.683 171.707 148.293L165.343 141.929C164.953 141.538 164.319 141.538 163.929 141.929C163.538 142.319 163.538 142.953 163.929 143.343L169.586 149L163.929 154.657C163.538 155.047 163.538 155.681 163.929 156.071C164.319 156.462 164.953 156.462 165.343 156.071L171.707 149.707ZM93 150H171V148H93V150Z" fill="black"/>
<rect x="186" y="1" width="150" height="49" fill="#5E9AED" stroke="black" stroke-width="2"/>
<path d="M250.344 31H248.836V25.7422H243.102V31H241.602V19.625H243.102V24.5156H248.836V19.625H250.344V31ZM259.438 25.7422H254.508V29.7734H260.234V31H253.008V19.625H260.156V20.8594H254.508V24.5156H259.438V25.7422ZM268.383 28.0312H263.617L262.547 31H261L265.344 19.625H266.656L271.008 31H269.469L268.383 28.0312ZM264.07 26.7969H267.938L266 21.4766L264.07 26.7969ZM272.539 31V19.625H275.75C276.74 19.625 277.615 19.8438 278.375 20.2812C279.135 20.7188 279.721 21.3411 280.133 22.1484C280.549 22.9557 280.76 23.8828 280.766 24.9297V25.6562C280.766 26.7292 280.557 27.6693 280.141 28.4766C279.729 29.2839 279.138 29.9036 278.367 30.3359C277.602 30.7682 276.708 30.9896 275.688 31H272.539ZM274.039 20.8594V29.7734H275.617C276.773 29.7734 277.672 29.4141 278.312 28.6953C278.958 27.9766 279.281 26.9531 279.281 25.625V24.9609C279.281 23.6693 278.977 22.6667 278.367 21.9531C277.763 21.2344 276.904 20.8698 275.789 20.8594H274.039Z" fill="black"/>
<rect x="448" y="27" width="150" height="49" fill="#74CCD3" stroke="black" stroke-width="2"/>
<path d="M500.391 48.5469L500.43 49.4844C501.049 48.7552 501.885 48.3906 502.938 48.3906C504.12 48.3906 504.924 48.8438 505.352 49.75C505.633 49.3438 505.997 49.0156 506.445 48.7656C506.898 48.5156 507.432 48.3906 508.047 48.3906C509.901 48.3906 510.844 49.3724 510.875 51.3359V57H509.43V51.4219C509.43 50.8177 509.292 50.3672 509.016 50.0703C508.74 49.7682 508.276 49.6172 507.625 49.6172C507.089 49.6172 506.643 49.7786 506.289 50.1016C505.935 50.4193 505.729 50.849 505.672 51.3906V57H504.219V51.4609C504.219 50.2318 503.617 49.6172 502.414 49.6172C501.466 49.6172 500.818 50.0208 500.469 50.8281V57H499.023V48.5469H500.391ZM518.281 57C518.198 56.8333 518.13 56.5365 518.078 56.1094C517.406 56.8073 516.604 57.1562 515.672 57.1562C514.839 57.1562 514.154 56.9219 513.617 56.4531C513.086 55.9792 512.82 55.3802 512.82 54.6562C512.82 53.776 513.154 53.0938 513.82 52.6094C514.492 52.1198 515.435 51.875 516.648 51.875H518.055V51.2109C518.055 50.7057 517.904 50.3047 517.602 50.0078C517.299 49.7057 516.854 49.5547 516.266 49.5547C515.75 49.5547 515.318 49.6849 514.969 49.9453C514.62 50.2057 514.445 50.5208 514.445 50.8906H512.992C512.992 50.4688 513.141 50.0625 513.438 49.6719C513.74 49.276 514.146 48.9635 514.656 48.7344C515.172 48.5052 515.737 48.3906 516.352 48.3906C517.326 48.3906 518.089 48.6354 518.641 49.125C519.193 49.6094 519.479 50.2786 519.5 51.1328V55.0234C519.5 55.7995 519.599 56.4167 519.797 56.875V57H518.281ZM515.883 55.8984C516.336 55.8984 516.766 55.7812 517.172 55.5469C517.578 55.3125 517.872 55.0078 518.055 54.6328V52.8984H516.922C515.151 52.8984 514.266 53.4167 514.266 54.4531C514.266 54.9062 514.417 55.2604 514.719 55.5156C515.021 55.7708 515.409 55.8984 515.883 55.8984ZM526.688 54.7578C526.688 54.3672 526.539 54.0651 526.242 53.8516C525.951 53.6328 525.438 53.4453 524.703 53.2891C523.974 53.1328 523.393 52.9453 522.961 52.7266C522.534 52.5078 522.216 52.2474 522.008 51.9453C521.805 51.6432 521.703 51.2839 521.703 50.8672C521.703 50.1745 521.995 49.5885 522.578 49.1094C523.167 48.6302 523.917 48.3906 524.828 48.3906C525.786 48.3906 526.562 48.638 527.156 49.1328C527.755 49.6276 528.055 50.2604 528.055 51.0312H526.602C526.602 50.6354 526.432 50.2943 526.094 50.0078C525.76 49.7214 525.339 49.5781 524.828 49.5781C524.302 49.5781 523.891 49.6927 523.594 49.9219C523.297 50.151 523.148 50.4505 523.148 50.8203C523.148 51.1693 523.286 51.4323 523.562 51.6094C523.839 51.7865 524.336 51.9557 525.055 52.1172C525.779 52.2786 526.365 52.4714 526.812 52.6953C527.26 52.9193 527.591 53.1901 527.805 53.5078C528.023 53.8203 528.133 54.2031 528.133 54.6562C528.133 55.4115 527.831 56.0182 527.227 56.4766C526.622 56.9297 525.839 57.1562 524.875 57.1562C524.198 57.1562 523.599 57.0365 523.078 56.7969C522.557 56.5573 522.148 56.224 521.852 55.7969C521.56 55.3646 521.414 54.8984 521.414 54.3984H522.859C522.885 54.8828 523.078 55.2682 523.438 55.5547C523.802 55.8359 524.281 55.9766 524.875 55.9766C525.422 55.9766 525.859 55.8672 526.188 55.6484C526.521 55.4245 526.688 55.1276 526.688 54.7578ZM531.977 46.5V48.5469H533.555V49.6641H531.977V54.9062C531.977 55.2448 532.047 55.5 532.188 55.6719C532.328 55.8385 532.568 55.9219 532.906 55.9219C533.073 55.9219 533.302 55.8906 533.594 55.8281V57C533.214 57.1042 532.844 57.1562 532.484 57.1562C531.839 57.1562 531.352 56.9609 531.023 56.5703C530.695 56.1797 530.531 55.625 530.531 54.9062V49.6641H528.992V48.5469H530.531V46.5H531.977ZM538.758 57.1562C537.612 57.1562 536.68 56.7812 535.961 56.0312C535.242 55.276 534.883 54.2682 534.883 53.0078V52.7422C534.883 51.9036 535.042 51.1562 535.359 50.5C535.682 49.8385 536.13 49.3229 536.703 48.9531C537.281 48.5781 537.906 48.3906 538.578 48.3906C539.677 48.3906 540.531 48.7526 541.141 49.4766C541.75 50.2005 542.055 51.237 542.055 52.5859V53.1875H536.328C536.349 54.0208 536.591 54.6953 537.055 55.2109C537.523 55.7214 538.117 55.9766 538.836 55.9766C539.346 55.9766 539.779 55.8724 540.133 55.6641C540.487 55.4557 540.797 55.1797 541.062 54.8359L541.945 55.5234C541.237 56.612 540.174 57.1562 538.758 57.1562ZM538.578 49.5781C537.995 49.5781 537.505 49.7917 537.109 50.2188C536.714 50.6406 536.469 51.2344 536.375 52H540.609V51.8906C540.568 51.1562 540.37 50.5885 540.016 50.1875C539.661 49.7812 539.182 49.5781 538.578 49.5781ZM547.82 49.8438C547.602 49.8073 547.365 49.7891 547.109 49.7891C546.161 49.7891 545.518 50.1927 545.18 51V57H543.734V48.5469H545.141L545.164 49.5234C545.638 48.7682 546.31 48.3906 547.18 48.3906C547.461 48.3906 547.674 48.4271 547.82 48.5V49.8438Z" fill="black"/>
<line x1="522.5" y1="75" x2="522.5" y2="102" stroke="black"/>
<rect x="516.707" y="106.718" width="8.5" height="8.5" transform="rotate(-45 516.707 106.718)" fill="white" stroke="black"/>
<line x1="261.5" y1="50.9902" x2="262.5" y2="101.99" stroke="black"/>
<rect x="256.707" y="106.718" width="8.5" height="8.5" transform="rotate(-45 256.707 106.718)" fill="white" stroke="black"/>
<path d="M35.7969 166.242C35.7969 165.992 35.8698 165.784 36.0156 165.617C36.1667 165.451 36.3906 165.367 36.6875 165.367C36.9844 165.367 37.2083 165.451 37.3594 165.617C37.5156 165.784 37.5938 165.992 37.5938 166.242C37.5938 166.482 37.5156 166.682 37.3594 166.844C37.2083 167.005 36.9844 167.086 36.6875 167.086C36.3906 167.086 36.1667 167.005 36.0156 166.844C35.8698 166.682 35.7969 166.482 35.7969 166.242ZM40.0156 166.242C40.0156 165.992 40.0885 165.784 40.2344 165.617C40.3854 165.451 40.6094 165.367 40.9062 165.367C41.2031 165.367 41.4271 165.451 41.5781 165.617C41.7344 165.784 41.8125 165.992 41.8125 166.242C41.8125 166.482 41.7344 166.682 41.5781 166.844C41.4271 167.005 41.2031 167.086 40.9062 167.086C40.6094 167.086 40.3854 167.005 40.2344 166.844C40.0885 166.682 40.0156 166.482 40.0156 166.242ZM44.2344 166.242C44.2344 165.992 44.3073 165.784 44.4531 165.617C44.6042 165.451 44.8281 165.367 45.125 165.367C45.4219 165.367 45.6458 165.451 45.7969 165.617C45.9531 165.784 46.0312 165.992 46.0312 166.242C46.0312 166.482 45.9531 166.682 45.7969 166.844C45.6458 167.005 45.4219 167.086 45.125 167.086C44.8281 167.086 44.6042 167.005 44.4531 166.844C44.3073 166.682 44.2344 166.482 44.2344 166.242Z" fill="black"/>
</svg>
