<svg width="626" height="193" viewBox="0 0 626 193" fill="none" xmlns="http://www.w3.org/2000/svg">
<rect x="171" y="122" width="181" height="70" rx="19" fill="#FEFCCC" stroke="black" stroke-width="2"/>
<rect x="432" y="122" width="181" height="70" rx="19" fill="#FEFCCC" stroke="black" stroke-width="2"/>
<path d="M180.805 146V138.664H179.469V137.547H180.805V136.68C180.805 135.773 181.047 135.073 181.531 134.578C182.016 134.083 182.701 133.836 183.586 133.836C183.919 133.836 184.25 133.88 184.578 133.969L184.5 135.141C184.255 135.094 183.995 135.07 183.719 135.07C183.25 135.07 182.888 135.208 182.633 135.484C182.378 135.755 182.25 136.146 182.25 136.656V137.547H184.055V138.664H182.25V146H180.805ZM192.852 135.438L188.141 146H186.625L191.32 135.812H185.164V134.625H192.852V135.438ZM201.391 137.594C201.391 138.161 201.24 138.667 200.938 139.109C200.641 139.552 200.237 139.898 199.727 140.148C200.32 140.404 200.789 140.776 201.133 141.266C201.482 141.755 201.656 142.31 201.656 142.93C201.656 143.914 201.323 144.698 200.656 145.281C199.995 145.865 199.122 146.156 198.039 146.156C196.945 146.156 196.068 145.865 195.406 145.281C194.75 144.693 194.422 143.909 194.422 142.93C194.422 142.315 194.589 141.76 194.922 141.266C195.26 140.771 195.727 140.396 196.32 140.141C195.815 139.891 195.417 139.544 195.125 139.102C194.833 138.659 194.688 138.156 194.688 137.594C194.688 136.635 194.995 135.875 195.609 135.312C196.224 134.75 197.034 134.469 198.039 134.469C199.039 134.469 199.846 134.75 200.461 135.312C201.081 135.875 201.391 136.635 201.391 137.594ZM200.211 142.898C200.211 142.263 200.008 141.745 199.602 141.344C199.201 140.943 198.674 140.742 198.023 140.742C197.372 140.742 196.849 140.94 196.453 141.336C196.062 141.732 195.867 142.253 195.867 142.898C195.867 143.544 196.057 144.052 196.438 144.422C196.823 144.792 197.357 144.977 198.039 144.977C198.716 144.977 199.247 144.792 199.633 144.422C200.018 144.047 200.211 143.539 200.211 142.898ZM198.039 135.656C197.471 135.656 197.01 135.833 196.656 136.188C196.307 136.536 196.133 137.013 196.133 137.617C196.133 138.195 196.305 138.664 196.648 139.023C196.997 139.378 197.461 139.555 198.039 139.555C198.617 139.555 199.078 139.378 199.422 139.023C199.771 138.664 199.945 138.195 199.945 137.617C199.945 137.039 199.766 136.568 199.406 136.203C199.047 135.839 198.591 135.656 198.039 135.656ZM210.375 137.594C210.375 138.161 210.224 138.667 209.922 139.109C209.625 139.552 209.221 139.898 208.711 140.148C209.305 140.404 209.773 140.776 210.117 141.266C210.466 141.755 210.641 142.31 210.641 142.93C210.641 143.914 210.307 144.698 209.641 145.281C208.979 145.865 208.107 146.156 207.023 146.156C205.93 146.156 205.052 145.865 204.391 145.281C203.734 144.693 203.406 143.909 203.406 142.93C203.406 142.315 203.573 141.76 203.906 141.266C204.245 140.771 204.711 140.396 205.305 140.141C204.799 139.891 204.401 139.544 204.109 139.102C203.818 138.659 203.672 138.156 203.672 137.594C203.672 136.635 203.979 135.875 204.594 135.312C205.208 134.75 206.018 134.469 207.023 134.469C208.023 134.469 208.831 134.75 209.445 135.312C210.065 135.875 210.375 136.635 210.375 137.594ZM209.195 142.898C209.195 142.263 208.992 141.745 208.586 141.344C208.185 140.943 207.659 140.742 207.008 140.742C206.357 140.742 205.833 140.94 205.438 141.336C205.047 141.732 204.852 142.253 204.852 142.898C204.852 143.544 205.042 144.052 205.422 144.422C205.807 144.792 206.341 144.977 207.023 144.977C207.701 144.977 208.232 144.792 208.617 144.422C209.003 144.047 209.195 143.539 209.195 142.898ZM207.023 135.656C206.456 135.656 205.995 135.833 205.641 136.188C205.292 136.536 205.117 137.013 205.117 137.617C205.117 138.195 205.289 138.664 205.633 139.023C205.982 139.378 206.445 139.555 207.023 139.555C207.602 139.555 208.062 139.378 208.406 139.023C208.755 138.664 208.93 138.195 208.93 137.617C208.93 137.039 208.75 136.568 208.391 136.203C208.031 135.839 207.576 135.656 207.023 135.656ZM218.562 142.18H220.141V143.359H218.562V146H217.109V143.359H211.93V142.508L217.023 134.625H218.562V142.18ZM213.57 142.18H217.109V136.602L216.938 136.914L213.57 142.18ZM186.438 162.656H182.328L181.547 165H179.055L183.289 153.625H185.461L189.719 165H187.227L186.438 162.656ZM182.961 160.758H185.805L184.375 156.5L182.961 160.758ZM190.281 160.711C190.281 159.393 190.576 158.344 191.164 157.562C191.758 156.781 192.568 156.391 193.594 156.391C194.417 156.391 195.096 156.698 195.633 157.312V153H197.898V165H195.859L195.75 164.102C195.188 164.805 194.464 165.156 193.578 165.156C192.583 165.156 191.784 164.766 191.18 163.984C190.581 163.198 190.281 162.107 190.281 160.711ZM192.539 160.875C192.539 161.667 192.677 162.273 192.953 162.695C193.229 163.117 193.63 163.328 194.156 163.328C194.854 163.328 195.346 163.034 195.633 162.445V159.109C195.352 158.521 194.865 158.227 194.172 158.227C193.083 158.227 192.539 159.109 192.539 160.875ZM199.297 160.711C199.297 159.393 199.591 158.344 200.18 157.562C200.773 156.781 201.583 156.391 202.609 156.391C203.432 156.391 204.112 156.698 204.648 157.312V153H206.914V165H204.875L204.766 164.102C204.203 164.805 203.479 165.156 202.594 165.156C201.599 165.156 200.799 164.766 200.195 163.984C199.596 163.198 199.297 162.107 199.297 160.711ZM201.555 160.875C201.555 161.667 201.693 162.273 201.969 162.695C202.245 163.117 202.646 163.328 203.172 163.328C203.87 163.328 204.362 163.034 204.648 162.445V159.109C204.367 158.521 203.88 158.227 203.188 158.227C202.099 158.227 201.555 159.109 201.555 160.875ZM212.297 160.695C212.297 159.857 212.458 159.109 212.781 158.453C213.104 157.797 213.568 157.289 214.172 156.93C214.781 156.57 215.487 156.391 216.289 156.391C217.43 156.391 218.359 156.74 219.078 157.438C219.802 158.135 220.206 159.083 220.289 160.281L220.305 160.859C220.305 162.156 219.943 163.198 219.219 163.984C218.495 164.766 217.523 165.156 216.305 165.156C215.086 165.156 214.112 164.766 213.383 163.984C212.659 163.203 212.297 162.141 212.297 160.797V160.695ZM214.555 160.859C214.555 161.661 214.706 162.276 215.008 162.703C215.31 163.125 215.742 163.336 216.305 163.336C216.852 163.336 217.279 163.128 217.586 162.711C217.893 162.289 218.047 161.617 218.047 160.695C218.047 159.909 217.893 159.299 217.586 158.867C217.279 158.435 216.846 158.219 216.289 158.219C215.737 158.219 215.31 158.435 215.008 158.867C214.706 159.294 214.555 159.958 214.555 160.859ZM224.734 162.242L226.305 156.547H228.664L225.812 165H223.656L220.805 156.547H223.164L224.734 162.242ZM233.445 165.156C232.206 165.156 231.195 164.776 230.414 164.016C229.638 163.255 229.25 162.242 229.25 160.977V160.758C229.25 159.909 229.414 159.151 229.742 158.484C230.07 157.812 230.534 157.297 231.133 156.938C231.737 156.573 232.424 156.391 233.195 156.391C234.352 156.391 235.26 156.755 235.922 157.484C236.589 158.214 236.922 159.247 236.922 160.586V161.508H231.539C231.612 162.06 231.831 162.503 232.195 162.836C232.565 163.169 233.031 163.336 233.594 163.336C234.464 163.336 235.143 163.021 235.633 162.391L236.742 163.633C236.404 164.112 235.945 164.487 235.367 164.758C234.789 165.023 234.148 165.156 233.445 165.156ZM233.188 158.219C232.74 158.219 232.375 158.37 232.094 158.672C231.818 158.974 231.641 159.406 231.562 159.969H234.703V159.789C234.693 159.289 234.557 158.904 234.297 158.633C234.036 158.357 233.667 158.219 233.188 158.219ZM242.961 158.664C242.654 158.622 242.383 158.602 242.148 158.602C241.294 158.602 240.734 158.891 240.469 159.469V165H238.211V156.547H240.344L240.406 157.555C240.859 156.779 241.487 156.391 242.289 156.391C242.539 156.391 242.773 156.424 242.992 156.492L242.961 158.664ZM247.359 162.242L248.93 156.547H251.289L248.438 165H246.281L243.43 156.547H245.789L247.359 162.242ZM254.672 165H252.406V156.547H254.672V165ZM252.273 154.359C252.273 154.021 252.385 153.742 252.609 153.523C252.839 153.305 253.148 153.195 253.539 153.195C253.924 153.195 254.232 153.305 254.461 153.523C254.69 153.742 254.805 154.021 254.805 154.359C254.805 154.703 254.688 154.984 254.453 155.203C254.224 155.422 253.919 155.531 253.539 155.531C253.159 155.531 252.852 155.422 252.617 155.203C252.388 154.984 252.273 154.703 252.273 154.359ZM260.43 165.156C259.19 165.156 258.18 164.776 257.398 164.016C256.622 163.255 256.234 162.242 256.234 160.977V160.758C256.234 159.909 256.398 159.151 256.727 158.484C257.055 157.812 257.518 157.297 258.117 156.938C258.721 156.573 259.409 156.391 260.18 156.391C261.336 156.391 262.245 156.755 262.906 157.484C263.573 158.214 263.906 159.247 263.906 160.586V161.508H258.523C258.596 162.06 258.815 162.503 259.18 162.836C259.549 163.169 260.016 163.336 260.578 163.336C261.448 163.336 262.128 163.021 262.617 162.391L263.727 163.633C263.388 164.112 262.93 164.487 262.352 164.758C261.773 165.023 261.133 165.156 260.43 165.156ZM260.172 158.219C259.724 158.219 259.359 158.37 259.078 158.672C258.802 158.974 258.625 159.406 258.547 159.969H261.688V159.789C261.677 159.289 261.542 158.904 261.281 158.633C261.021 158.357 260.651 158.219 260.172 158.219ZM272.547 161.93L273.656 156.547H275.836L273.68 165H271.789L270.188 159.68L268.586 165H266.703L264.547 156.547H266.727L267.828 161.922L269.375 156.547H271.008L272.547 161.93ZM288.555 160.852C288.555 162.154 288.258 163.198 287.664 163.984C287.076 164.766 286.279 165.156 285.273 165.156C284.419 165.156 283.729 164.859 283.203 164.266V168.25H280.945V156.547H283.039L283.117 157.375C283.664 156.719 284.378 156.391 285.258 156.391C286.299 156.391 287.109 156.776 287.688 157.547C288.266 158.318 288.555 159.38 288.555 160.734V160.852ZM286.297 160.688C286.297 159.901 286.156 159.294 285.875 158.867C285.599 158.44 285.195 158.227 284.664 158.227C283.956 158.227 283.469 158.497 283.203 159.039V162.5C283.479 163.057 283.971 163.336 284.68 163.336C285.758 163.336 286.297 162.453 286.297 160.688ZM294.859 165C294.755 164.797 294.68 164.544 294.633 164.242C294.086 164.852 293.375 165.156 292.5 165.156C291.672 165.156 290.984 164.917 290.438 164.438C289.896 163.958 289.625 163.354 289.625 162.625C289.625 161.729 289.956 161.042 290.617 160.562C291.284 160.083 292.245 159.841 293.5 159.836H294.539V159.352C294.539 158.961 294.438 158.648 294.234 158.414C294.036 158.18 293.721 158.062 293.289 158.062C292.909 158.062 292.609 158.154 292.391 158.336C292.177 158.518 292.07 158.768 292.07 159.086H289.812C289.812 158.596 289.964 158.143 290.266 157.727C290.568 157.31 290.995 156.984 291.547 156.75C292.099 156.51 292.719 156.391 293.406 156.391C294.448 156.391 295.273 156.654 295.883 157.18C296.497 157.701 296.805 158.435 296.805 159.383V163.047C296.81 163.849 296.922 164.456 297.141 164.867V165H294.859ZM292.992 163.43C293.326 163.43 293.633 163.357 293.914 163.211C294.195 163.06 294.404 162.859 294.539 162.609V161.156H293.695C292.565 161.156 291.964 161.547 291.891 162.328L291.883 162.461C291.883 162.742 291.982 162.974 292.18 163.156C292.378 163.339 292.648 163.43 292.992 163.43ZM298.211 160.711C298.211 159.414 298.518 158.37 299.133 157.578C299.753 156.786 300.586 156.391 301.633 156.391C302.56 156.391 303.281 156.708 303.797 157.344L303.891 156.547H305.938V164.719C305.938 165.458 305.768 166.102 305.43 166.648C305.096 167.195 304.625 167.612 304.016 167.898C303.406 168.185 302.693 168.328 301.875 168.328C301.255 168.328 300.651 168.203 300.062 167.953C299.474 167.708 299.029 167.391 298.727 167L299.727 165.625C300.289 166.255 300.971 166.57 301.773 166.57C302.372 166.57 302.839 166.409 303.172 166.086C303.505 165.768 303.672 165.315 303.672 164.727V164.273C303.151 164.862 302.466 165.156 301.617 165.156C300.602 165.156 299.779 164.76 299.148 163.969C298.523 163.172 298.211 162.117 298.211 160.805V160.711ZM300.469 160.875C300.469 161.641 300.622 162.242 300.93 162.68C301.237 163.112 301.659 163.328 302.195 163.328C302.883 163.328 303.375 163.07 303.672 162.555V159C303.37 158.484 302.883 158.227 302.211 158.227C301.669 158.227 301.242 158.448 300.93 158.891C300.622 159.333 300.469 159.995 300.469 160.875ZM311.57 165.156C310.331 165.156 309.32 164.776 308.539 164.016C307.763 163.255 307.375 162.242 307.375 160.977V160.758C307.375 159.909 307.539 159.151 307.867 158.484C308.195 157.812 308.659 157.297 309.258 156.938C309.862 156.573 310.549 156.391 311.32 156.391C312.477 156.391 313.385 156.755 314.047 157.484C314.714 158.214 315.047 159.247 315.047 160.586V161.508H309.664C309.737 162.06 309.956 162.503 310.32 162.836C310.69 163.169 311.156 163.336 311.719 163.336C312.589 163.336 313.268 163.021 313.758 162.391L314.867 163.633C314.529 164.112 314.07 164.487 313.492 164.758C312.914 165.023 312.273 165.156 311.57 165.156ZM311.312 158.219C310.865 158.219 310.5 158.37 310.219 158.672C309.943 158.974 309.766 159.406 309.688 159.969H312.828V159.789C312.818 159.289 312.682 158.904 312.422 158.633C312.161 158.357 311.792 158.219 311.312 158.219Z" fill="black"/>
<path d="M444.047 139.609H445.133C445.815 139.599 446.352 139.419 446.742 139.07C447.133 138.721 447.328 138.25 447.328 137.656C447.328 136.323 446.664 135.656 445.336 135.656C444.711 135.656 444.211 135.836 443.836 136.195C443.466 136.549 443.281 137.021 443.281 137.609H441.836C441.836 136.708 442.164 135.961 442.82 135.367C443.482 134.768 444.32 134.469 445.336 134.469C446.409 134.469 447.25 134.753 447.859 135.32C448.469 135.888 448.773 136.677 448.773 137.688C448.773 138.182 448.612 138.661 448.289 139.125C447.971 139.589 447.536 139.935 446.984 140.164C447.609 140.362 448.091 140.69 448.43 141.148C448.773 141.607 448.945 142.167 448.945 142.828C448.945 143.849 448.612 144.659 447.945 145.258C447.279 145.857 446.411 146.156 445.344 146.156C444.276 146.156 443.406 145.867 442.734 145.289C442.068 144.711 441.734 143.948 441.734 143H443.188C443.188 143.599 443.383 144.078 443.773 144.438C444.164 144.797 444.688 144.977 445.344 144.977C446.042 144.977 446.576 144.794 446.945 144.43C447.315 144.065 447.5 143.542 447.5 142.859C447.5 142.198 447.297 141.69 446.891 141.336C446.484 140.982 445.898 140.799 445.133 140.789H444.047V139.609ZM451.789 146V138.664H450.453V137.547H451.789V136.68C451.789 135.773 452.031 135.073 452.516 134.578C453 134.083 453.685 133.836 454.57 133.836C454.904 133.836 455.234 133.88 455.562 133.969L455.484 135.141C455.24 135.094 454.979 135.07 454.703 135.07C454.234 135.07 453.872 135.208 453.617 135.484C453.362 135.755 453.234 136.146 453.234 136.656V137.547H455.039V138.664H453.234V146H451.789ZM462.031 141C461.729 141.359 461.367 141.648 460.945 141.867C460.529 142.086 460.07 142.195 459.57 142.195C458.914 142.195 458.341 142.034 457.852 141.711C457.367 141.388 456.992 140.935 456.727 140.352C456.461 139.763 456.328 139.115 456.328 138.406C456.328 137.646 456.471 136.961 456.758 136.352C457.049 135.742 457.461 135.276 457.992 134.953C458.523 134.63 459.143 134.469 459.852 134.469C460.977 134.469 461.862 134.891 462.508 135.734C463.159 136.573 463.484 137.719 463.484 139.172V139.594C463.484 141.807 463.047 143.424 462.172 144.445C461.297 145.461 459.977 145.982 458.211 146.008H457.93V144.789H458.234C459.427 144.768 460.344 144.458 460.984 143.859C461.625 143.255 461.974 142.302 462.031 141ZM459.805 141C460.289 141 460.734 140.852 461.141 140.555C461.552 140.258 461.852 139.891 462.039 139.453V138.875C462.039 137.927 461.833 137.156 461.422 136.562C461.01 135.969 460.49 135.672 459.859 135.672C459.224 135.672 458.714 135.917 458.328 136.406C457.943 136.891 457.75 137.531 457.75 138.328C457.75 139.104 457.935 139.745 458.305 140.25C458.68 140.75 459.18 141 459.805 141ZM472.781 141.867C472.781 143.159 472.484 144.198 471.891 144.984C471.297 145.766 470.5 146.156 469.5 146.156C468.432 146.156 467.607 145.779 467.023 145.023L466.953 146H465.625V134H467.07V138.477C467.654 137.753 468.458 137.391 469.484 137.391C470.51 137.391 471.315 137.779 471.898 138.555C472.487 139.331 472.781 140.393 472.781 141.742V141.867ZM471.336 141.703C471.336 140.719 471.146 139.958 470.766 139.422C470.385 138.885 469.839 138.617 469.125 138.617C468.172 138.617 467.487 139.06 467.07 139.945V143.602C467.513 144.487 468.203 144.93 469.141 144.93C469.833 144.93 470.372 144.661 470.758 144.125C471.143 143.589 471.336 142.781 471.336 141.703ZM480 141C479.698 141.359 479.336 141.648 478.914 141.867C478.497 142.086 478.039 142.195 477.539 142.195C476.883 142.195 476.31 142.034 475.82 141.711C475.336 141.388 474.961 140.935 474.695 140.352C474.43 139.763 474.297 139.115 474.297 138.406C474.297 137.646 474.44 136.961 474.727 136.352C475.018 135.742 475.43 135.276 475.961 134.953C476.492 134.63 477.112 134.469 477.82 134.469C478.945 134.469 479.831 134.891 480.477 135.734C481.128 136.573 481.453 137.719 481.453 139.172V139.594C481.453 141.807 481.016 143.424 480.141 144.445C479.266 145.461 477.945 145.982 476.18 146.008H475.898V144.789H476.203C477.396 144.768 478.312 144.458 478.953 143.859C479.594 143.255 479.943 142.302 480 141ZM477.773 141C478.258 141 478.703 140.852 479.109 140.555C479.521 140.258 479.82 139.891 480.008 139.453V138.875C480.008 137.927 479.802 137.156 479.391 136.562C478.979 135.969 478.458 135.672 477.828 135.672C477.193 135.672 476.682 135.917 476.297 136.406C475.911 136.891 475.719 137.531 475.719 138.328C475.719 139.104 475.904 139.745 476.273 140.25C476.648 140.75 477.148 141 477.773 141ZM448.859 160.352H444.359V165H442.016V153.625H449.422V155.523H444.359V158.461H448.859V160.352ZM453.016 165H450.75V156.547H453.016V165ZM450.617 154.359C450.617 154.021 450.729 153.742 450.953 153.523C451.182 153.305 451.492 153.195 451.883 153.195C452.268 153.195 452.576 153.305 452.805 153.523C453.034 153.742 453.148 154.021 453.148 154.359C453.148 154.703 453.031 154.984 452.797 155.203C452.568 155.422 452.263 155.531 451.883 155.531C451.503 155.531 451.195 155.422 450.961 155.203C450.732 154.984 450.617 154.703 450.617 154.359ZM458.102 159.07L459.523 156.547H461.938L459.531 160.688L462.039 165H459.617L458.109 162.344L456.609 165H454.18L456.688 160.688L454.289 156.547H456.711L458.102 159.07ZM470.898 165.156C469.659 165.156 468.648 164.776 467.867 164.016C467.091 163.255 466.703 162.242 466.703 160.977V160.758C466.703 159.909 466.867 159.151 467.195 158.484C467.523 157.812 467.987 157.297 468.586 156.938C469.19 156.573 469.878 156.391 470.648 156.391C471.805 156.391 472.714 156.755 473.375 157.484C474.042 158.214 474.375 159.247 474.375 160.586V161.508H468.992C469.065 162.06 469.284 162.503 469.648 162.836C470.018 163.169 470.484 163.336 471.047 163.336C471.917 163.336 472.596 163.021 473.086 162.391L474.195 163.633C473.857 164.112 473.398 164.487 472.82 164.758C472.242 165.023 471.602 165.156 470.898 165.156ZM470.641 158.219C470.193 158.219 469.828 158.37 469.547 158.672C469.271 158.974 469.094 159.406 469.016 159.969H472.156V159.789C472.146 159.289 472.01 158.904 471.75 158.633C471.49 158.357 471.12 158.219 470.641 158.219ZM478.883 159.07L480.305 156.547H482.719L480.312 160.688L482.82 165H480.398L478.891 162.344L477.391 165H474.961L477.469 160.688L475.07 156.547H477.492L478.883 159.07ZM487.164 163.336C487.581 163.336 487.919 163.221 488.18 162.992C488.44 162.763 488.576 162.458 488.586 162.078H490.703C490.698 162.651 490.542 163.177 490.234 163.656C489.927 164.13 489.505 164.5 488.969 164.766C488.438 165.026 487.849 165.156 487.203 165.156C485.995 165.156 485.042 164.773 484.344 164.008C483.646 163.237 483.297 162.174 483.297 160.82V160.672C483.297 159.37 483.643 158.331 484.336 157.555C485.029 156.779 485.979 156.391 487.188 156.391C488.245 156.391 489.091 156.693 489.727 157.297C490.367 157.896 490.693 158.695 490.703 159.695H488.586C488.576 159.258 488.44 158.904 488.18 158.633C487.919 158.357 487.576 158.219 487.148 158.219C486.622 158.219 486.224 158.411 485.953 158.797C485.688 159.177 485.555 159.797 485.555 160.656V160.891C485.555 161.76 485.688 162.385 485.953 162.766C486.219 163.146 486.622 163.336 487.164 163.336ZM495.883 165.156C494.643 165.156 493.633 164.776 492.852 164.016C492.076 163.255 491.688 162.242 491.688 160.977V160.758C491.688 159.909 491.852 159.151 492.18 158.484C492.508 157.812 492.971 157.297 493.57 156.938C494.174 156.573 494.862 156.391 495.633 156.391C496.789 156.391 497.698 156.755 498.359 157.484C499.026 158.214 499.359 159.247 499.359 160.586V161.508H493.977C494.049 162.06 494.268 162.503 494.633 162.836C495.003 163.169 495.469 163.336 496.031 163.336C496.901 163.336 497.581 163.021 498.07 162.391L499.18 163.633C498.841 164.112 498.383 164.487 497.805 164.758C497.227 165.023 496.586 165.156 495.883 165.156ZM495.625 158.219C495.177 158.219 494.812 158.37 494.531 158.672C494.255 158.974 494.078 159.406 494 159.969H497.141V159.789C497.13 159.289 496.995 158.904 496.734 158.633C496.474 158.357 496.104 158.219 495.625 158.219ZM504.539 165.156C503.299 165.156 502.289 164.776 501.508 164.016C500.732 163.255 500.344 162.242 500.344 160.977V160.758C500.344 159.909 500.508 159.151 500.836 158.484C501.164 157.812 501.628 157.297 502.227 156.938C502.831 156.573 503.518 156.391 504.289 156.391C505.445 156.391 506.354 156.755 507.016 157.484C507.682 158.214 508.016 159.247 508.016 160.586V161.508H502.633C502.706 162.06 502.924 162.503 503.289 162.836C503.659 163.169 504.125 163.336 504.688 163.336C505.557 163.336 506.237 163.021 506.727 162.391L507.836 163.633C507.497 164.112 507.039 164.487 506.461 164.758C505.883 165.023 505.242 165.156 504.539 165.156ZM504.281 158.219C503.833 158.219 503.469 158.37 503.188 158.672C502.911 158.974 502.734 159.406 502.656 159.969H505.797V159.789C505.786 159.289 505.651 158.904 505.391 158.633C505.13 158.357 504.76 158.219 504.281 158.219ZM508.953 160.711C508.953 159.393 509.247 158.344 509.836 157.562C510.43 156.781 511.24 156.391 512.266 156.391C513.089 156.391 513.768 156.698 514.305 157.312V153H516.57V165H514.531L514.422 164.102C513.859 164.805 513.135 165.156 512.25 165.156C511.255 165.156 510.456 164.766 509.852 163.984C509.253 163.198 508.953 162.107 508.953 160.711ZM511.211 160.875C511.211 161.667 511.349 162.273 511.625 162.695C511.901 163.117 512.302 163.328 512.828 163.328C513.526 163.328 514.018 163.034 514.305 162.445V159.109C514.023 158.521 513.536 158.227 512.844 158.227C511.755 158.227 511.211 159.109 511.211 160.875ZM520.703 165H518.438V156.547H520.703V165ZM518.305 154.359C518.305 154.021 518.417 153.742 518.641 153.523C518.87 153.305 519.18 153.195 519.57 153.195C519.956 153.195 520.263 153.305 520.492 153.523C520.721 153.742 520.836 154.021 520.836 154.359C520.836 154.703 520.719 154.984 520.484 155.203C520.255 155.422 519.951 155.531 519.57 155.531C519.19 155.531 518.883 155.422 518.648 155.203C518.419 154.984 518.305 154.703 518.305 154.359ZM524.648 156.547L524.719 157.523C525.323 156.768 526.133 156.391 527.148 156.391C528.044 156.391 528.711 156.654 529.148 157.18C529.586 157.706 529.81 158.492 529.82 159.539V165H527.562V159.594C527.562 159.115 527.458 158.768 527.25 158.555C527.042 158.336 526.695 158.227 526.211 158.227C525.576 158.227 525.099 158.497 524.781 159.039V165H522.523V156.547H524.648ZM531.211 160.711C531.211 159.414 531.518 158.37 532.133 157.578C532.753 156.786 533.586 156.391 534.633 156.391C535.56 156.391 536.281 156.708 536.797 157.344L536.891 156.547H538.938V164.719C538.938 165.458 538.768 166.102 538.43 166.648C538.096 167.195 537.625 167.612 537.016 167.898C536.406 168.185 535.693 168.328 534.875 168.328C534.255 168.328 533.651 168.203 533.062 167.953C532.474 167.708 532.029 167.391 531.727 167L532.727 165.625C533.289 166.255 533.971 166.57 534.773 166.57C535.372 166.57 535.839 166.409 536.172 166.086C536.505 165.768 536.672 165.315 536.672 164.727V164.273C536.151 164.862 535.466 165.156 534.617 165.156C533.602 165.156 532.779 164.76 532.148 163.969C531.523 163.172 531.211 162.117 531.211 160.805V160.711ZM533.469 160.875C533.469 161.641 533.622 162.242 533.93 162.68C534.237 163.112 534.659 163.328 535.195 163.328C535.883 163.328 536.375 163.07 536.672 162.555V159C536.37 158.484 535.883 158.227 535.211 158.227C534.669 158.227 534.242 158.448 533.93 158.891C533.622 159.333 533.469 159.995 533.469 160.875ZM543.062 165H540.797V153H543.062V165ZM548.086 161.805L549.648 156.547H552.07L548.672 166.312L548.484 166.758C547.979 167.862 547.146 168.414 545.984 168.414C545.656 168.414 545.323 168.365 544.984 168.266V166.555L545.328 166.562C545.755 166.562 546.073 166.497 546.281 166.367C546.495 166.237 546.661 166.021 546.781 165.719L547.047 165.023L544.086 156.547H546.516L548.086 161.805ZM559.328 165H557.062V153H559.328V165ZM560.844 160.695C560.844 159.857 561.005 159.109 561.328 158.453C561.651 157.797 562.115 157.289 562.719 156.93C563.328 156.57 564.034 156.391 564.836 156.391C565.977 156.391 566.906 156.74 567.625 157.438C568.349 158.135 568.753 159.083 568.836 160.281L568.852 160.859C568.852 162.156 568.49 163.198 567.766 163.984C567.042 164.766 566.07 165.156 564.852 165.156C563.633 165.156 562.659 164.766 561.93 163.984C561.206 163.203 560.844 162.141 560.844 160.797V160.695ZM563.102 160.859C563.102 161.661 563.253 162.276 563.555 162.703C563.857 163.125 564.289 163.336 564.852 163.336C565.398 163.336 565.826 163.128 566.133 162.711C566.44 162.289 566.594 161.617 566.594 160.695C566.594 159.909 566.44 159.299 566.133 158.867C565.826 158.435 565.393 158.219 564.836 158.219C564.284 158.219 563.857 158.435 563.555 158.867C563.253 159.294 563.102 159.958 563.102 160.859ZM572.32 156.547L572.391 157.523C572.995 156.768 573.805 156.391 574.82 156.391C575.716 156.391 576.383 156.654 576.82 157.18C577.258 157.706 577.482 158.492 577.492 159.539V165H575.234V159.594C575.234 159.115 575.13 158.768 574.922 158.555C574.714 158.336 574.367 158.227 573.883 158.227C573.247 158.227 572.771 158.497 572.453 159.039V165H570.195V156.547H572.32ZM578.883 160.711C578.883 159.414 579.19 158.37 579.805 157.578C580.424 156.786 581.258 156.391 582.305 156.391C583.232 156.391 583.953 156.708 584.469 157.344L584.562 156.547H586.609V164.719C586.609 165.458 586.44 166.102 586.102 166.648C585.768 167.195 585.297 167.612 584.688 167.898C584.078 168.185 583.365 168.328 582.547 168.328C581.927 168.328 581.323 168.203 580.734 167.953C580.146 167.708 579.701 167.391 579.398 167L580.398 165.625C580.961 166.255 581.643 166.57 582.445 166.57C583.044 166.57 583.51 166.409 583.844 166.086C584.177 165.768 584.344 165.315 584.344 164.727V164.273C583.823 164.862 583.138 165.156 582.289 165.156C581.273 165.156 580.451 164.76 579.82 163.969C579.195 163.172 578.883 162.117 578.883 160.805V160.711ZM581.141 160.875C581.141 161.641 581.294 162.242 581.602 162.68C581.909 163.112 582.331 163.328 582.867 163.328C583.555 163.328 584.047 163.07 584.344 162.555V159C584.042 158.484 583.555 158.227 582.883 158.227C582.341 158.227 581.914 158.448 581.602 158.891C581.294 159.333 581.141 159.995 581.141 160.875ZM446.445 181.664C446.445 181.388 446.307 181.172 446.031 181.016C445.76 180.854 445.323 180.711 444.719 180.586C442.708 180.164 441.703 179.31 441.703 178.023C441.703 177.273 442.013 176.648 442.633 176.148C443.258 175.643 444.073 175.391 445.078 175.391C446.151 175.391 447.008 175.643 447.648 176.148C448.294 176.654 448.617 177.31 448.617 178.117H446.359C446.359 177.794 446.255 177.529 446.047 177.32C445.839 177.107 445.513 177 445.07 177C444.69 177 444.396 177.086 444.188 177.258C443.979 177.43 443.875 177.648 443.875 177.914C443.875 178.164 443.992 178.367 444.227 178.523C444.466 178.674 444.867 178.807 445.43 178.922C445.992 179.031 446.466 179.156 446.852 179.297C448.044 179.734 448.641 180.492 448.641 181.57C448.641 182.341 448.31 182.966 447.648 183.445C446.987 183.919 446.133 184.156 445.086 184.156C444.378 184.156 443.747 184.031 443.195 183.781C442.648 183.526 442.219 183.18 441.906 182.742C441.594 182.299 441.438 181.823 441.438 181.312H443.578C443.599 181.714 443.747 182.021 444.023 182.234C444.299 182.448 444.669 182.555 445.133 182.555C445.565 182.555 445.891 182.474 446.109 182.312C446.333 182.146 446.445 181.93 446.445 181.664ZM455.164 183.141C454.607 183.818 453.836 184.156 452.852 184.156C451.945 184.156 451.253 183.896 450.773 183.375C450.299 182.854 450.057 182.091 450.047 181.086V175.547H452.305V181.008C452.305 181.888 452.706 182.328 453.508 182.328C454.273 182.328 454.799 182.062 455.086 181.531V175.547H457.352V184H455.227L455.164 183.141ZM466.672 179.852C466.672 181.206 466.383 182.263 465.805 183.023C465.227 183.779 464.419 184.156 463.383 184.156C462.466 184.156 461.734 183.805 461.188 183.102L461.086 184H459.055V172H461.312V176.305C461.833 175.695 462.518 175.391 463.367 175.391C464.398 175.391 465.206 175.771 465.789 176.531C466.378 177.286 466.672 178.352 466.672 179.727V179.852ZM464.414 179.688C464.414 178.833 464.279 178.211 464.008 177.82C463.737 177.424 463.333 177.227 462.797 177.227C462.078 177.227 461.583 177.521 461.312 178.109V181.445C461.589 182.039 462.089 182.336 462.812 182.336C463.542 182.336 464.021 181.977 464.25 181.258C464.359 180.914 464.414 180.391 464.414 179.688ZM470.188 175.547L470.258 176.492C470.857 175.758 471.667 175.391 472.688 175.391C473.776 175.391 474.523 175.82 474.93 176.68C475.523 175.82 476.37 175.391 477.469 175.391C478.385 175.391 479.068 175.659 479.516 176.195C479.964 176.727 480.188 177.529 480.188 178.602V184H477.922V178.609C477.922 178.13 477.828 177.781 477.641 177.562C477.453 177.339 477.122 177.227 476.648 177.227C475.971 177.227 475.503 177.549 475.242 178.195L475.25 184H472.992V178.617C472.992 178.128 472.896 177.773 472.703 177.555C472.51 177.336 472.182 177.227 471.719 177.227C471.078 177.227 470.615 177.492 470.328 178.023V184H468.07V175.547H470.188ZM484.312 184H482.047V175.547H484.312V184ZM481.914 173.359C481.914 173.021 482.026 172.742 482.25 172.523C482.479 172.305 482.789 172.195 483.18 172.195C483.565 172.195 483.872 172.305 484.102 172.523C484.331 172.742 484.445 173.021 484.445 173.359C484.445 173.703 484.328 173.984 484.094 174.203C483.865 174.422 483.56 174.531 483.18 174.531C482.799 174.531 482.492 174.422 482.258 174.203C482.029 173.984 481.914 173.703 481.914 173.359ZM490.758 181.664C490.758 181.388 490.62 181.172 490.344 181.016C490.073 180.854 489.635 180.711 489.031 180.586C487.021 180.164 486.016 179.31 486.016 178.023C486.016 177.273 486.326 176.648 486.945 176.148C487.57 175.643 488.385 175.391 489.391 175.391C490.464 175.391 491.32 175.643 491.961 176.148C492.607 176.654 492.93 177.31 492.93 178.117H490.672C490.672 177.794 490.568 177.529 490.359 177.32C490.151 177.107 489.826 177 489.383 177C489.003 177 488.708 177.086 488.5 177.258C488.292 177.43 488.188 177.648 488.188 177.914C488.188 178.164 488.305 178.367 488.539 178.523C488.779 178.674 489.18 178.807 489.742 178.922C490.305 179.031 490.779 179.156 491.164 179.297C492.357 179.734 492.953 180.492 492.953 181.57C492.953 182.341 492.622 182.966 491.961 183.445C491.299 183.919 490.445 184.156 489.398 184.156C488.69 184.156 488.06 184.031 487.508 183.781C486.961 183.526 486.531 183.18 486.219 182.742C485.906 182.299 485.75 181.823 485.75 181.312H487.891C487.911 181.714 488.06 182.021 488.336 182.234C488.612 182.448 488.982 182.555 489.445 182.555C489.878 182.555 490.203 182.474 490.422 182.312C490.646 182.146 490.758 181.93 490.758 181.664ZM498.992 181.664C498.992 181.388 498.854 181.172 498.578 181.016C498.307 180.854 497.87 180.711 497.266 180.586C495.255 180.164 494.25 179.31 494.25 178.023C494.25 177.273 494.56 176.648 495.18 176.148C495.805 175.643 496.62 175.391 497.625 175.391C498.698 175.391 499.555 175.643 500.195 176.148C500.841 176.654 501.164 177.31 501.164 178.117H498.906C498.906 177.794 498.802 177.529 498.594 177.32C498.385 177.107 498.06 177 497.617 177C497.237 177 496.943 177.086 496.734 177.258C496.526 177.43 496.422 177.648 496.422 177.914C496.422 178.164 496.539 178.367 496.773 178.523C497.013 178.674 497.414 178.807 497.977 178.922C498.539 179.031 499.013 179.156 499.398 179.297C500.591 179.734 501.188 180.492 501.188 181.57C501.188 182.341 500.857 182.966 500.195 183.445C499.534 183.919 498.68 184.156 497.633 184.156C496.924 184.156 496.294 184.031 495.742 183.781C495.195 183.526 494.766 183.18 494.453 182.742C494.141 182.299 493.984 181.823 493.984 181.312H496.125C496.146 181.714 496.294 182.021 496.57 182.234C496.846 182.448 497.216 182.555 497.68 182.555C498.112 182.555 498.438 182.474 498.656 182.312C498.88 182.146 498.992 181.93 498.992 181.664ZM505.031 184H502.766V175.547H505.031V184ZM502.633 173.359C502.633 173.021 502.745 172.742 502.969 172.523C503.198 172.305 503.508 172.195 503.898 172.195C504.284 172.195 504.591 172.305 504.82 172.523C505.049 172.742 505.164 173.021 505.164 173.359C505.164 173.703 505.047 173.984 504.812 174.203C504.583 174.422 504.279 174.531 503.898 174.531C503.518 174.531 503.211 174.422 502.977 174.203C502.747 173.984 502.633 173.703 502.633 173.359ZM506.547 179.695C506.547 178.857 506.708 178.109 507.031 177.453C507.354 176.797 507.818 176.289 508.422 175.93C509.031 175.57 509.737 175.391 510.539 175.391C511.68 175.391 512.609 175.74 513.328 176.438C514.052 177.135 514.456 178.083 514.539 179.281L514.555 179.859C514.555 181.156 514.193 182.198 513.469 182.984C512.745 183.766 511.773 184.156 510.555 184.156C509.336 184.156 508.362 183.766 507.633 182.984C506.909 182.203 506.547 181.141 506.547 179.797V179.695ZM508.805 179.859C508.805 180.661 508.956 181.276 509.258 181.703C509.56 182.125 509.992 182.336 510.555 182.336C511.102 182.336 511.529 182.128 511.836 181.711C512.143 181.289 512.297 180.617 512.297 179.695C512.297 178.909 512.143 178.299 511.836 177.867C511.529 177.435 511.096 177.219 510.539 177.219C509.987 177.219 509.56 177.435 509.258 177.867C508.956 178.294 508.805 178.958 508.805 179.859ZM518.023 175.547L518.094 176.523C518.698 175.768 519.508 175.391 520.523 175.391C521.419 175.391 522.086 175.654 522.523 176.18C522.961 176.706 523.185 177.492 523.195 178.539V184H520.938V178.594C520.938 178.115 520.833 177.768 520.625 177.555C520.417 177.336 520.07 177.227 519.586 177.227C518.951 177.227 518.474 177.497 518.156 178.039V184H515.898V175.547H518.023ZM529.492 181.664C529.492 181.388 529.354 181.172 529.078 181.016C528.807 180.854 528.37 180.711 527.766 180.586C525.755 180.164 524.75 179.31 524.75 178.023C524.75 177.273 525.06 176.648 525.68 176.148C526.305 175.643 527.12 175.391 528.125 175.391C529.198 175.391 530.055 175.643 530.695 176.148C531.341 176.654 531.664 177.31 531.664 178.117H529.406C529.406 177.794 529.302 177.529 529.094 177.32C528.885 177.107 528.56 177 528.117 177C527.737 177 527.443 177.086 527.234 177.258C527.026 177.43 526.922 177.648 526.922 177.914C526.922 178.164 527.039 178.367 527.273 178.523C527.513 178.674 527.914 178.807 528.477 178.922C529.039 179.031 529.513 179.156 529.898 179.297C531.091 179.734 531.688 180.492 531.688 181.57C531.688 182.341 531.357 182.966 530.695 183.445C530.034 183.919 529.18 184.156 528.133 184.156C527.424 184.156 526.794 184.031 526.242 183.781C525.695 183.526 525.266 183.18 524.953 182.742C524.641 182.299 524.484 181.823 524.484 181.312H526.625C526.646 181.714 526.794 182.021 527.07 182.234C527.346 182.448 527.716 182.555 528.18 182.555C528.612 182.555 528.938 182.474 529.156 182.312C529.38 182.146 529.492 181.93 529.492 181.664ZM539.836 173.469V175.547H541.281V177.203H539.836V181.422C539.836 181.734 539.896 181.958 540.016 182.094C540.135 182.229 540.365 182.297 540.703 182.297C540.953 182.297 541.174 182.279 541.367 182.242V183.953C540.924 184.089 540.469 184.156 540 184.156C538.417 184.156 537.609 183.357 537.578 181.758V177.203H536.344V175.547H537.578V173.469H539.836ZM541.953 179.695C541.953 178.857 542.115 178.109 542.438 177.453C542.76 176.797 543.224 176.289 543.828 175.93C544.438 175.57 545.143 175.391 545.945 175.391C547.086 175.391 548.016 175.74 548.734 176.438C549.458 177.135 549.862 178.083 549.945 179.281L549.961 179.859C549.961 181.156 549.599 182.198 548.875 182.984C548.151 183.766 547.18 184.156 545.961 184.156C544.742 184.156 543.768 183.766 543.039 182.984C542.315 182.203 541.953 181.141 541.953 179.797V179.695ZM544.211 179.859C544.211 180.661 544.362 181.276 544.664 181.703C544.966 182.125 545.398 182.336 545.961 182.336C546.508 182.336 546.935 182.128 547.242 181.711C547.549 181.289 547.703 180.617 547.703 179.695C547.703 178.909 547.549 178.299 547.242 177.867C546.935 177.435 546.503 177.219 545.945 177.219C545.393 177.219 544.966 177.435 544.664 177.867C544.362 178.294 544.211 178.958 544.211 179.859ZM561.906 181.656H557.797L557.016 184H554.523L558.758 172.625H560.93L565.188 184H562.695L561.906 181.656ZM558.43 179.758H561.273L559.844 175.5L558.43 179.758ZM568.594 179.992V184H566.25V172.625H570.688C571.542 172.625 572.292 172.781 572.938 173.094C573.589 173.406 574.089 173.852 574.438 174.43C574.786 175.003 574.961 175.656 574.961 176.391C574.961 177.505 574.578 178.385 573.812 179.031C573.052 179.672 571.997 179.992 570.648 179.992H568.594ZM568.594 178.094H570.688C571.307 178.094 571.779 177.948 572.102 177.656C572.43 177.365 572.594 176.948 572.594 176.406C572.594 175.849 572.43 175.398 572.102 175.055C571.773 174.711 571.32 174.534 570.742 174.523H568.594V178.094ZM579.07 184H576.727V172.625H579.07V184Z" fill="black"/>
<path d="M431.707 157.707C432.098 157.317 432.098 156.683 431.707 156.293L425.343 149.929C424.953 149.538 424.319 149.538 423.929 149.929C423.538 150.319 423.538 150.953 423.929 151.343L429.586 157L423.929 162.657C423.538 163.047 423.538 163.681 423.929 164.071C424.319 164.462 424.953 164.462 425.343 164.071L431.707 157.707ZM353 158H431V156H353V158Z" fill="black"/>
<path d="M171.707 157.707C172.098 157.317 172.098 156.683 171.707 156.293L165.343 149.929C164.953 149.538 164.319 149.538 163.929 149.929C163.538 150.319 163.538 150.953 163.929 151.343L169.586 157L163.929 162.657C163.538 163.047 163.538 163.681 163.929 164.071C164.319 164.462 164.953 164.462 165.343 164.071L171.707 157.707ZM93 158H171V156H93V158Z" fill="black"/>
<rect x="475" y="1" width="150" height="49" fill="#5E9AED" stroke="black" stroke-width="2"/>
<path d="M539.344 31H537.836V25.7422H532.102V31H530.602V19.625H532.102V24.5156H537.836V19.625H539.344V31ZM548.438 25.7422H543.508V29.7734H549.234V31H542.008V19.625H549.156V20.8594H543.508V24.5156H548.438V25.7422ZM557.383 28.0312H552.617L551.547 31H550L554.344 19.625H555.656L560.008 31H558.469L557.383 28.0312ZM553.07 26.7969H556.938L555 21.4766L553.07 26.7969ZM561.539 31V19.625H564.75C565.74 19.625 566.615 19.8438 567.375 20.2812C568.135 20.7188 568.721 21.3411 569.133 22.1484C569.549 22.9557 569.76 23.8828 569.766 24.9297V25.6562C569.766 26.7292 569.557 27.6693 569.141 28.4766C568.729 29.2839 568.138 29.9036 567.367 30.3359C566.602 30.7682 565.708 30.9896 564.688 31H561.539ZM563.039 20.8594V29.7734H564.617C565.773 29.7734 566.672 29.4141 567.312 28.6953C567.958 27.9766 568.281 26.9531 568.281 25.625V24.9609C568.281 23.6693 567.977 22.6667 567.367 21.9531C566.763 21.2344 565.904 20.8698 564.789 20.8594H563.039Z" fill="black"/>
<rect x="448" y="35" width="150" height="49" fill="#74CCD3" stroke="black" stroke-width="2"/>
<path d="M500.391 56.5469L500.43 57.4844C501.049 56.7552 501.885 56.3906 502.938 56.3906C504.12 56.3906 504.924 56.8438 505.352 57.75C505.633 57.3438 505.997 57.0156 506.445 56.7656C506.898 56.5156 507.432 56.3906 508.047 56.3906C509.901 56.3906 510.844 57.3724 510.875 59.3359V65H509.43V59.4219C509.43 58.8177 509.292 58.3672 509.016 58.0703C508.74 57.7682 508.276 57.6172 507.625 57.6172C507.089 57.6172 506.643 57.7786 506.289 58.1016C505.935 58.4193 505.729 58.849 505.672 59.3906V65H504.219V59.4609C504.219 58.2318 503.617 57.6172 502.414 57.6172C501.466 57.6172 500.818 58.0208 500.469 58.8281V65H499.023V56.5469H500.391ZM518.281 65C518.198 64.8333 518.13 64.5365 518.078 64.1094C517.406 64.8073 516.604 65.1562 515.672 65.1562C514.839 65.1562 514.154 64.9219 513.617 64.4531C513.086 63.9792 512.82 63.3802 512.82 62.6562C512.82 61.776 513.154 61.0938 513.82 60.6094C514.492 60.1198 515.435 59.875 516.648 59.875H518.055V59.2109C518.055 58.7057 517.904 58.3047 517.602 58.0078C517.299 57.7057 516.854 57.5547 516.266 57.5547C515.75 57.5547 515.318 57.6849 514.969 57.9453C514.62 58.2057 514.445 58.5208 514.445 58.8906H512.992C512.992 58.4688 513.141 58.0625 513.438 57.6719C513.74 57.276 514.146 56.9635 514.656 56.7344C515.172 56.5052 515.737 56.3906 516.352 56.3906C517.326 56.3906 518.089 56.6354 518.641 57.125C519.193 57.6094 519.479 58.2786 519.5 59.1328V63.0234C519.5 63.7995 519.599 64.4167 519.797 64.875V65H518.281ZM515.883 63.8984C516.336 63.8984 516.766 63.7812 517.172 63.5469C517.578 63.3125 517.872 63.0078 518.055 62.6328V60.8984H516.922C515.151 60.8984 514.266 61.4167 514.266 62.4531C514.266 62.9062 514.417 63.2604 514.719 63.5156C515.021 63.7708 515.409 63.8984 515.883 63.8984ZM526.688 62.7578C526.688 62.3672 526.539 62.0651 526.242 61.8516C525.951 61.6328 525.438 61.4453 524.703 61.2891C523.974 61.1328 523.393 60.9453 522.961 60.7266C522.534 60.5078 522.216 60.2474 522.008 59.9453C521.805 59.6432 521.703 59.2839 521.703 58.8672C521.703 58.1745 521.995 57.5885 522.578 57.1094C523.167 56.6302 523.917 56.3906 524.828 56.3906C525.786 56.3906 526.562 56.638 527.156 57.1328C527.755 57.6276 528.055 58.2604 528.055 59.0312H526.602C526.602 58.6354 526.432 58.2943 526.094 58.0078C525.76 57.7214 525.339 57.5781 524.828 57.5781C524.302 57.5781 523.891 57.6927 523.594 57.9219C523.297 58.151 523.148 58.4505 523.148 58.8203C523.148 59.1693 523.286 59.4323 523.562 59.6094C523.839 59.7865 524.336 59.9557 525.055 60.1172C525.779 60.2786 526.365 60.4714 526.812 60.6953C527.26 60.9193 527.591 61.1901 527.805 61.5078C528.023 61.8203 528.133 62.2031 528.133 62.6562C528.133 63.4115 527.831 64.0182 527.227 64.4766C526.622 64.9297 525.839 65.1562 524.875 65.1562C524.198 65.1562 523.599 65.0365 523.078 64.7969C522.557 64.5573 522.148 64.224 521.852 63.7969C521.56 63.3646 521.414 62.8984 521.414 62.3984H522.859C522.885 62.8828 523.078 63.2682 523.438 63.5547C523.802 63.8359 524.281 63.9766 524.875 63.9766C525.422 63.9766 525.859 63.8672 526.188 63.6484C526.521 63.4245 526.688 63.1276 526.688 62.7578ZM531.977 54.5V56.5469H533.555V57.6641H531.977V62.9062C531.977 63.2448 532.047 63.5 532.188 63.6719C532.328 63.8385 532.568 63.9219 532.906 63.9219C533.073 63.9219 533.302 63.8906 533.594 63.8281V65C533.214 65.1042 532.844 65.1562 532.484 65.1562C531.839 65.1562 531.352 64.9609 531.023 64.5703C530.695 64.1797 530.531 63.625 530.531 62.9062V57.6641H528.992V56.5469H530.531V54.5H531.977ZM538.758 65.1562C537.612 65.1562 536.68 64.7812 535.961 64.0312C535.242 63.276 534.883 62.2682 534.883 61.0078V60.7422C534.883 59.9036 535.042 59.1562 535.359 58.5C535.682 57.8385 536.13 57.3229 536.703 56.9531C537.281 56.5781 537.906 56.3906 538.578 56.3906C539.677 56.3906 540.531 56.7526 541.141 57.4766C541.75 58.2005 542.055 59.237 542.055 60.5859V61.1875H536.328C536.349 62.0208 536.591 62.6953 537.055 63.2109C537.523 63.7214 538.117 63.9766 538.836 63.9766C539.346 63.9766 539.779 63.8724 540.133 63.6641C540.487 63.4557 540.797 63.1797 541.062 62.8359L541.945 63.5234C541.237 64.612 540.174 65.1562 538.758 65.1562ZM538.578 57.5781C537.995 57.5781 537.505 57.7917 537.109 58.2188C536.714 58.6406 536.469 59.2344 536.375 60H540.609V59.8906C540.568 59.1562 540.37 58.5885 540.016 58.1875C539.661 57.7812 539.182 57.5781 538.578 57.5781ZM547.82 57.8438C547.602 57.8073 547.365 57.7891 547.109 57.7891C546.161 57.7891 545.518 58.1927 545.18 59V65H543.734V56.5469H545.141L545.164 57.5234C545.638 56.7682 546.31 56.3906 547.18 56.3906C547.461 56.3906 547.674 56.4271 547.82 56.5V57.8438Z" fill="black"/>
<line x1="522.5" y1="83" x2="522.5" y2="110" stroke="black"/>
<rect x="516.707" y="114.718" width="8.5" height="8.5" transform="rotate(-45 516.707 114.718)" fill="white" stroke="black"/>
<path d="M522.545 108.734C522.545 106.264 522.792 99.1141 524 97C527 84 532.206 85.2257 533.5 84" stroke="black" stroke-linecap="round" stroke-linejoin="round"/>
<path d="M35.7969 174.242C35.7969 173.992 35.8698 173.784 36.0156 173.617C36.1667 173.451 36.3906 173.367 36.6875 173.367C36.9844 173.367 37.2083 173.451 37.3594 173.617C37.5156 173.784 37.5938 173.992 37.5938 174.242C37.5938 174.482 37.5156 174.682 37.3594 174.844C37.2083 175.005 36.9844 175.086 36.6875 175.086C36.3906 175.086 36.1667 175.005 36.0156 174.844C35.8698 174.682 35.7969 174.482 35.7969 174.242ZM40.0156 174.242C40.0156 173.992 40.0885 173.784 40.2344 173.617C40.3854 173.451 40.6094 173.367 40.9062 173.367C41.2031 173.367 41.4271 173.451 41.5781 173.617C41.7344 173.784 41.8125 173.992 41.8125 174.242C41.8125 174.482 41.7344 174.682 41.5781 174.844C41.4271 175.005 41.2031 175.086 40.9062 175.086C40.6094 175.086 40.3854 175.005 40.2344 174.844C40.0885 174.682 40.0156 174.482 40.0156 174.242ZM44.2344 174.242C44.2344 173.992 44.3073 173.784 44.4531 173.617C44.6042 173.451 44.8281 173.367 45.125 173.367C45.4219 173.367 45.6458 173.451 45.7969 173.617C45.9531 173.784 46.0312 173.992 46.0312 174.242C46.0312 174.482 45.9531 174.682 45.7969 174.844C45.6458 175.005 45.4219 175.086 45.125 175.086C44.8281 175.086 44.6042 175.005 44.4531 174.844C44.3073 174.682 44.2344 174.482 44.2344 174.242Z" fill="black"/>
</svg>
